<?xml version="1.0" encoding="UTF-8"?>
<svg version="1.1" xmlns="http://www.w3.org/2000/svg" width="60" height="60">
<path d="M0 0 C0.90143738 -0.01606293 1.80287476 -0.03212585 2.73162842 -0.04867554 C6.86111711 -0.09315507 10.99044484 -0.13420096 15.12011719 -0.15722656 C17.29665833 -0.17377451 19.4731454 -0.20104901 21.64941406 -0.23925781 C24.78902353 -0.29409607 27.92735854 -0.31591275 31.06738281 -0.33056641 C32.03633484 -0.35323578 33.00528687 -0.37590515 34.00360107 -0.39926147 C38.50930537 -0.38521249 41.65458413 -0.30049495 45.24414062 2.60058594 C48.25952828 5.85570856 48.76889358 7.25385548 48.83837891 11.54736328 C48.85444183 12.44880066 48.87050476 13.35023804 48.88705444 14.2789917 C48.93153398 18.40848039 48.97257987 22.53780812 48.99560547 26.66748047 C49.01215341 28.84402162 49.03942792 31.02050868 49.07763672 33.19677734 C49.13247498 36.33638681 49.15429166 39.47472182 49.16894531 42.61474609 C49.19161469 43.58369812 49.21428406 44.55265015 49.23764038 45.55096436 C49.22359139 50.05666865 49.13887386 53.20194741 46.23779297 56.79150391 C42.98267034 59.80689156 41.58452343 60.31625686 37.29101562 60.38574219 C36.38957825 60.40180511 35.48814087 60.41786804 34.55938721 60.43441772 C30.42989852 60.47889726 26.30057078 60.51994315 22.17089844 60.54296875 C19.99435729 60.55951669 17.81787022 60.5867912 15.64160156 60.625 C12.5019921 60.67983826 9.36365708 60.70165494 6.22363281 60.71630859 C5.25468079 60.73897797 4.28572876 60.76164734 3.28741455 60.78500366 C-1.21828975 60.77095467 -4.36356851 60.68623714 -7.953125 57.78515625 C-10.96851266 54.53003362 -11.47787795 53.13188671 -11.54736328 48.83837891 C-11.56342621 47.93694153 -11.57948914 47.03550415 -11.59603882 46.10675049 C-11.64051835 41.9772618 -11.68156424 37.84793407 -11.70458984 33.71826172 C-11.72113779 31.54172057 -11.7484123 29.36523351 -11.78662109 27.18896484 C-11.84145935 24.04935538 -11.86327603 20.91102036 -11.87792969 17.77099609 C-11.90059906 16.80204407 -11.92326843 15.83309204 -11.94662476 14.83477783 C-11.93257577 10.32907353 -11.84785823 7.18379478 -8.94677734 3.59423828 C-5.69165472 0.57885062 -4.29350781 0.06948533 0 0 Z " fill="#FBFCFC" transform="translate(11.3544921875,-0.19287109375)"/>
<path d="M0 0 C7.40874405 0.23519822 12.56601493 1.77622712 18 7 C21.45331684 11.96665849 23.81205615 16.82837325 23 23 C21.68 23 20.36 23 19 23 C18.9175 23.86625 18.835 24.7325 18.75 25.625 C17.56929552 30.93817015 15.28941452 34.00607631 11 37.3125 C6.20888644 40.00750138 2.52908744 40.46075729 -3 40 C-8.51247016 38.26032311 -11.89355451 35.54859666 -15.08984375 30.78125 C-17.2662216 26.52190108 -17.857786 21.69307919 -17 17 C-14.0889731 10.6685165 -10.38504095 6.71955448 -4 4 C-2.68 4 -1.36 4 0 4 C0 2.68 0 1.36 0 0 Z " fill="#EBF4FF" transform="translate(27,10)"/>
<path d="M0 0 C7.40874405 0.23519822 12.56601493 1.77622712 18 7 C21.45331684 11.96665849 23.81205615 16.82837325 23 23 C21.68 23 20.36 23 19 23 C18.9175 23.86625 18.835 24.7325 18.75 25.625 C17.56929552 30.93817015 15.28941452 34.00607631 11 37.3125 C6.20888644 40.00750138 2.52908744 40.46075729 -3 40 C-8.51247016 38.26032311 -11.89355451 35.54859666 -15.08984375 30.78125 C-17.2662216 26.52190108 -17.857786 21.69307919 -17 17 C-14.0889731 10.6685165 -10.38504095 6.71955448 -4 4 C-2.68 4 -1.36 4 0 4 C0 2.68 0 1.36 0 0 Z M-13.9375 13.125 C-15.63719447 17.72417327 -15.64720378 22.16375197 -15 27 C-12.51258984 31.88598425 -9.30515541 36.23161486 -4 38 C2.85724405 38.73127952 7.46601149 38.20583127 13 34 C15.78526554 30.714815 16.93076827 28.93462834 17.25 24.625 C17.1675 23.75875 17.085 22.8925 17 22 C16.401875 21.95875 15.80375 21.9175 15.1875 21.875 C11.91960654 20.56784262 11.5164483 18.09355454 10 15 C7.67269842 12.85172162 5.61020142 11.28815067 2.75 9.9375 C1 9 1 9 0 6 C-6.09867928 5.07595768 -10.06059427 8.87290985 -13.9375 13.125 Z " fill="#2E91FF" transform="translate(27,10)"/>
<path d="M0 0 C7.07930058 0.56634405 10.79140128 2.84048125 15.8125 7.75 C18.52427846 11.77892799 18.75238933 14.21286041 19 19 C16.69 19 14.38 19 12 19 C12 18.34 12 17.68 12 17 C12.99 17 13.98 17 15 17 C12.51895424 10.6509885 10.21767753 7.86969732 4 5 C3.67 5.66 3.34 6.32 3 7 C2.01 7 1.02 7 0 7 C0 4.69 0 2.38 0 0 Z " fill="#F8FBFF" transform="translate(29,12)"/>
<path d="M0 0 C2.40427707 2.40427707 2.32604885 3.39178454 2.75 6.6875 C3.71821204 12.03203045 5.81967458 15.52171396 10 19 C14.86425774 20.62141925 20.19429429 20.95779193 25.10546875 19.28125 C28.99051349 17.22689798 31.24490547 14.99771532 33 11 C33.70670728 8.30745009 33.70670728 8.30745009 34 6 C35.125 7.75 35.125 7.75 36 10 C34.09904475 15.53005163 30.07483649 19.30061889 25 22 C19.98722287 23.94042986 14.74321447 23.58686261 9.875 21.4375 C5.20691918 18.89045008 2.00347485 15.13585892 0.375 10.046875 C-0.24130855 6.68285748 -0.0569089 3.414534 0 0 Z " fill="#3796FF" transform="translate(10,27)"/>
<path d="M0 0 C3 0.25 3 0.25 5 2.25 C5.25 5.25 5.25 5.25 5 8.25 C4.34 8.91 3.68 9.57 3 10.25 C-0.625 9.875 -0.625 9.875 -4 9.25 C-4.625 5.875 -4.625 5.875 -5 2.25 C-3 0.25 -3 0.25 0 0 Z " fill="#2F92FF" transform="translate(28,26.75)"/>
<path d="M0 0 C5.25333697 1.46604753 9.30912157 3.34290532 12.3125 8.0625 C13 10 13 10 13 13 C11.68 13.33 10.36 13.66 9 14 C8.649375 12.906875 8.29875 11.81375 7.9375 10.6875 C6.62316459 7.53564713 5.46435287 6.37683541 2.3125 5.0625 C1.219375 4.711875 0.12625 4.36125 -1 4 C-0.34 3.67 0.32 3.34 1 3 C0.67 2.01 0.34 1.02 0 0 Z " fill="#DFEEFF" transform="translate(31,16)"/>
<path d="M0 0 C7.40874405 0.23519822 12.56601493 1.77622712 18 7 C21.45331684 11.96665849 23.81205615 16.82837325 23 23 C21.68 22.67 20.36 22.34 19 22 C19.66 21.67 20.32 21.34 21 21 C18.97378088 13.58700321 16.83629612 8.31776224 10 4.1875 C7.26550995 3.10509769 4.93076776 2.24423065 2 2 C1.34 2.66 0.68 3.32 0 4 C0 2.68 0 1.36 0 0 Z " fill="#469EFF" transform="translate(27,10)"/>
<path d="M0 0 C1.67542976 0.28604898 3.34385343 0.61781233 5 1 C5.38218767 2.65614657 5.71395102 4.32457024 6 6 C5 7 5 7 2.5 7.125 C0 7 0 7 -1 6 C-1.125 3.5 -1.125 3.5 -1 1 C-0.67 0.67 -0.34 0.34 0 0 Z " fill="#F4F9FF" transform="translate(26,28)"/>
<path d="M0 0 C2.39324736 2.39324736 2.35547085 3.40793919 2.8125 6.6875 C3.75077725 11.94337828 5.62383882 14.91306804 9 19 C5.55484772 18.40052906 5.11170462 18.14362023 2.8125 15.1875 C-0.19282355 9.90227583 -0.09982119 5.98927132 0 0 Z " fill="#489FFF" transform="translate(10,27)"/>
<path d="M0 0 C5.25333697 1.46604753 9.30912157 3.34290532 12.3125 8.0625 C13 10 13 10 13 13 C12.34 13 11.68 13 11 13 C8 7.25 8 7.25 8 5 C6.8553125 4.5978125 6.8553125 4.5978125 5.6875 4.1875 C3.12619116 3.05575888 1.80307062 2.08776599 0 0 Z " fill="#439CFF" transform="translate(31,16)"/>
<path d="M0 0 C0.99 0.33 1.98 0.66 3 1 C3 2.32 3 3.64 3 5 C1.68 5 0.36 5 -1 5 C-0.67 3.35 -0.34 1.7 0 0 Z " fill="#469EFF" transform="translate(19,21)"/>
</svg>
