<svg width="60" height="60" viewBox="0 0 60 60" fill="none" xmlns="http://www.w3.org/2000/svg">
<rect x="0.5" y="0.5" width="59" height="59" rx="11.5" fill="white" stroke="#EBEBEB"/>
<path d="M27.0289 49.9H29.2807C29.504 49.8686 29.7269 49.8395 29.9492 49.8105C30.4442 49.746 30.9365 49.6818 31.426 49.5927L31.4261 49.5927C34.96 48.9517 38.0258 47.3768 40.6188 44.9016C43.1613 42.4748 44.8831 39.5546 45.7023 36.1331L45.7996 36.1564L45.7023 36.1331C45.8832 35.3781 46.0019 34.6107 46.1241 33.8211C46.1805 33.4563 46.2377 33.0867 46.3021 32.7114L46.3164 32.6283H46.4007C46.6194 32.6283 46.8443 32.627 47.0734 32.6257C47.6288 32.6226 48.2094 32.6193 48.7885 32.6336C49.0596 32.6403 49.2869 32.6002 49.471 32.5009C49.6486 32.405 49.7942 32.2497 49.9 32.0088V30.5538C49.8929 30.5171 49.8849 30.4814 49.8764 30.444C49.8715 30.4224 49.8665 30.4002 49.8615 30.3768C49.8476 30.3124 49.8346 30.2437 49.8299 30.173L49.8299 30.1728C49.7185 28.4713 49.3972 26.8082 48.8627 25.1929C47.1912 20.1418 44.1054 16.1829 39.5935 13.3575C36.1522 11.203 32.3792 10.1447 28.3189 10.1001L28.32 10.0001L28.3189 10.1001C27.9991 10.0966 27.7677 10.1805 27.614 10.3304C27.4602 10.4805 27.3697 10.711 27.3616 11.0306C27.3616 11.0306 27.3616 11.0306 27.3616 11.0307L27.2616 11.0281C27.2542 11.3254 27.256 11.6232 27.2578 11.9207C27.2587 12.0529 27.2595 12.1851 27.2595 12.3171L27.0289 49.9ZM27.0289 49.9C26.8125 49.8691 26.5968 49.8405 26.3818 49.8119C25.9062 49.7488 25.4337 49.6861 24.9635 49.6002C20.6414 48.8097 17.0755 46.7074 14.2616 43.3501L14.1849 43.4143L27.0289 49.9ZM44.5534 32.7283V32.6283L41.0673 32.4257L41.1024 32.3321C41.1023 32.3321 41.1023 32.3321 41.1023 32.3321C39.8319 31.8563 39.242 30.8358 38.9241 29.5269C38.3758 27.2683 37.3902 25.4324 35.9739 24.0182C34.5576 22.6041 32.7154 21.6166 30.4612 21.0473C29.9276 20.9123 29.3854 20.746 28.9392 20.4651L28.8859 20.5498L28.9392 20.4651C27.8352 19.7704 27.3773 18.692 27.3616 17.3985C27.3565 16.9743 27.3579 16.5502 27.3592 16.1251C27.3599 15.9284 27.3605 15.7316 27.3605 15.5343V15.4303L27.2566 15.4344C19.3851 15.7475 11.7596 22.3304 11.7113 31.7903C11.6641 41.0534 19.3368 48.4659 28.4436 48.2698C38.0258 48.064 44.3099 40.2389 44.5534 32.7326L44.5534 32.7326V32.7294V32.7283ZM48.1209 31.012H48.2241L48.2209 30.9089C47.8931 20.2063 38.6607 11.897 29.0778 11.7964L28.9767 11.7953V11.8963V11.8971V11.8978V11.8986V11.8993V11.9001V11.9008V11.9015V11.9023V11.903V11.9038V11.9045V11.9053V11.906V11.9067V11.9075V11.9082V11.909V11.9097V11.9105V11.9112V11.912V11.9127V11.9134V11.9142V11.9149V11.9157V11.9164V11.9172V11.9179V11.9186V11.9194V11.9201V11.9209V11.9216V11.9224V11.9231V11.9238V11.9246V11.9253V11.9261V11.9268V11.9276V11.9283V11.9291V11.9298V11.9305V11.9313V11.932V11.9328V11.9335V11.9343V11.935V11.9357V11.9365V11.9372V11.938V11.9387V11.9395V11.9402V11.941V11.9417V11.9424V11.9432V11.9439V11.9447V11.9454V11.9462V11.9469V11.9477V11.9484V11.9491V11.9499V11.9506V11.9514V11.9521V11.9529V11.9536V11.9544V11.9551V11.9558V11.9566V11.9573V11.9581V11.9588V11.9596V11.9603V11.9611V11.9618V11.9625V11.9633V11.964V11.9648V11.9655V11.9663V11.967V11.9678V11.9685V11.9692V11.97V11.9707V11.9715V11.9722V11.973V11.9737V11.9745V11.9752V11.9759V11.9767V11.9774V11.9782V11.9789V11.9797V11.9804V11.9812V11.9819V11.9827V11.9834V11.9841V11.9849V11.9856V11.9864V11.9871V11.9879V11.9886V11.9894V11.9901V11.9908V11.9916V11.9923V11.9931V11.9938V11.9946V11.9953V11.9961V11.9968V11.9976V11.9983V11.999V11.9998V12.0005V12.0013V12.002V12.0028V12.0035V12.0043V12.005V12.0058V12.0065V12.0072V12.008V12.0087V12.0095V12.0102V12.011V12.0117V12.0125V12.0132V12.014V12.0147V12.0154V12.0162V12.0169V12.0177V12.0184V12.0192V12.0199V12.0207V12.0214V12.0222V12.0229V12.0236V12.0244V12.0251V12.0259V12.0266V12.0274V12.0281V12.0289V12.0296V12.0304V12.0311V12.0318V12.0326V12.0333V12.0341V12.0348V12.0356V12.0363V12.0371V12.0378V12.0386V12.0393V12.04V12.0408V12.0415V12.0423V12.043V12.0438V12.0445V12.0453V12.046V12.0468V12.0475V12.0482V12.049V12.0497V12.0505V12.0512V12.052V12.0527V12.0535V12.0542V12.055V12.0557V12.0565V12.0572V12.0579V12.0587V12.0594V12.0602V12.0609V12.0617V12.0624V12.0632V12.0639V12.0647V12.0654V12.0662V12.0669V12.0676V12.0684V12.0691V12.0699V12.0706V12.0714V12.0721V12.0729V12.0736V12.0744V12.0751V12.0758V12.0766V12.0773V12.0781V12.0788V12.0796V12.0803V12.0811V12.0818V12.0826V12.0833V12.0841V12.0848V12.0855V12.0863V12.087V12.0878V12.0885V12.0893V12.09V12.0908V12.0915V12.0923V12.093V12.0937V12.0945V12.0952V12.096V12.0967V12.0975V12.0982V12.099V12.0997V12.1005V12.1012V12.102V12.1027V12.1034V12.1042V12.1049V12.1057V12.1064V12.1072V12.1079V12.1087V12.1094V12.1102V12.1109V12.1117V12.1124V12.1131V12.1139V12.1146V12.1154V12.1161V12.1169V12.1176V12.1184V12.1191V12.1199V12.1206V12.1213V12.1221V12.1228V12.1236V12.1243V12.1251V12.1258V12.1266V12.1273V12.1281V12.1288V12.1295V12.1303V12.131V12.1318V12.1325V12.1333V12.134V12.1348V12.1355V12.1363V12.137V12.1378V12.1385V12.1392V12.14V12.1407V12.1415V12.1422V12.143V12.1437V12.1445V12.1452V12.146V12.1467V12.1474V12.1482V12.1489V12.1497V12.1504V12.1512V12.1519V12.1527V12.1534V12.1542V12.1549V12.1556V12.1564V12.1571V12.1579V12.1586V12.1594V12.1601V12.1609V12.1616V12.1624V12.1631V12.1638V12.1646V12.1653V12.1661V12.1668V12.1676V12.1683V12.1691V12.1698V12.1706V12.1713V12.172V12.1728V12.1735V12.1743V12.175V12.1758V12.1765V12.1773V12.178V12.1788V12.1795V12.1802V12.181V12.1817V12.1825V12.1832V12.184V12.1847V12.1855V12.1862V12.187V12.1877V12.1884V12.1892V12.1899V12.1907V12.1914V12.1922V12.1929V12.1937V12.1944V12.1951V12.1959V12.1966V12.1974V12.1981V12.1989V12.1996V12.2004V12.2011V12.2018V12.2026V12.2033V12.2041V12.2048V12.2056V12.2063V12.2071V12.2078V12.2086V12.2093V12.21V12.2108V12.2115V12.2123V12.213V12.2138V12.2145V12.2153V12.216V12.2167V12.2175V12.2182V12.219V12.2197V12.2205V12.2212V12.222V12.2227V12.2234V12.2242V12.2249V12.2257V12.2264V12.2272V12.2279V12.2287V12.2294V12.2301V12.2309V12.2316V12.2324V12.2331V12.2339V12.2346V12.2353V12.2361V12.2368V12.2376V12.2383V12.2391V12.2398V12.2406V12.2413V12.242V12.2428V12.2435V12.2443V12.245V12.2458V12.2465V12.2473V12.248V12.2487V12.2495V12.2502V12.251V12.2517V12.2525V12.2532V12.2539V12.2547V12.2554V12.2562V12.2569V12.2577V12.2584V12.2591V12.2599V12.2606V12.2614V12.2621V12.2629V12.2636V12.2644V12.2651V12.2658V12.2666V12.2673V12.2681V12.2688V12.2696V12.2703V12.271V12.2718V12.2725V12.2733V12.274V12.2748V12.2755V12.2762V12.277V12.2777C28.9767 12.8288 28.9766 13.3798 28.9765 13.9309C28.9762 15.0333 28.976 16.1359 28.9767 17.2389C28.9772 17.8857 29.1007 18.3704 29.3957 18.7324C29.69 19.0937 30.142 19.3167 30.7635 19.4697C33.3749 20.1127 35.4918 21.2488 37.1164 22.8724C38.741 24.4961 39.8782 26.6122 40.5225 29.2229C40.6761 29.845 40.8992 30.2976 41.2601 30.5923C41.6217 30.8877 42.1056 31.0114 42.7512 31.012C43.854 31.0134 44.9569 31.0129 46.0598 31.0124C46.6111 31.0122 47.1625 31.012 47.7138 31.012H47.7145H47.7153H47.716H47.7168H47.7175H47.7183H47.719H47.7197H47.7205H47.7212H47.722H47.7227H47.7235H47.7242H47.7249H47.7257H47.7264H47.7272H47.7279H47.7287H47.7294H47.7302H47.7309H47.7316H47.7324H47.7331H47.7339H47.7346H47.7354H47.7361H47.7369H47.7376H47.7383H47.7391H47.7398H47.7406H47.7413H47.7421H47.7428H47.7435H47.7443H47.745H47.7458H47.7465H47.7473H47.748H47.7488H47.7495H47.7503H47.751H47.7518H47.7525H47.7532H47.754H47.7547H47.7555H47.7562H47.757H47.7577H47.7585H47.7592H47.76H47.7607H47.7615H47.7622H47.7629H47.7637H47.7644H47.7652H47.7659H47.7667H47.7674H47.7682H47.7689H47.7697H47.7704H47.7712H47.7719H47.7727H47.7734H47.7742H47.7749H47.7757H47.7764H47.7772H47.7779H47.7787H47.7794H47.7802H47.7809H47.7816H47.7824H47.7831H47.7839H47.7846H47.7854H47.7861H47.7869H47.7876H47.7884H47.7892H47.7899H47.7906H47.7914H47.7922H47.7929H47.7937H47.7944H47.7952H47.7959H47.7967H47.7974H47.7982H47.7989H47.7997H47.8004H47.8012H47.8019H47.8027H47.8034H47.8042H47.8049H47.8057H47.8064H47.8072H47.808H47.8087H47.8095H47.8102H47.811H47.8117H47.8125H47.8132H47.814H47.8148H47.8155H47.8163H47.817H47.8178H47.8185H47.8193H47.82H47.8208H47.8216H47.8223H47.8231H47.8238H47.8246H47.8253H47.8261H47.8269H47.8276H47.8284H47.8291H47.8299H47.8307H47.8314H47.8322H47.8329H47.8337H47.8345H47.8352H47.836H47.8367H47.8375H47.8383H47.839H47.8398H47.8405H47.8413H47.8421H47.8428H47.8436H47.8444H47.8451H47.8459H47.8466H47.8474H47.8482H47.8489H47.8497H47.8505H47.8512H47.852H47.8528H47.8535H47.8543H47.855H47.8558H47.8566H47.8573H47.8581H47.8589H47.8596H47.8604H47.8612H47.8619H47.8627H47.8635H47.8642H47.865H47.8658H47.8666H47.8673H47.8681H47.8689H47.8696H47.8704H47.8712H47.8719H47.8727H47.8735H47.8743H47.875H47.8758H47.8766H47.8773H47.8781H47.8789H47.8797H47.8804H47.8812H47.882H47.8827H47.8835H47.8843H47.8851H47.8858H47.8866H47.8874H47.8882H47.8889H47.8897H47.8905H47.8913H47.8921H47.8928H47.8936H47.8944H47.8952H47.8959H47.8967H47.8975H47.8983H47.8991H47.8998H47.9006H47.9014H47.9022H47.903H47.9037H47.9045H47.9053H47.9061H47.9069H47.9076H47.9084H47.9092H47.91H47.9108H47.9116H47.9123H47.9131H47.9139H47.9147H47.9155H47.9163H47.917H47.9178H47.9186H47.9194H47.9202H47.921H47.9218H47.9226H47.9233H47.9241H47.9249H47.9257H47.9265H47.9273H47.9281H47.9289H47.9297H47.9304H47.9312H47.932H47.9328H47.9336H47.9344H47.9352H47.936H47.9368H47.9376H47.9384H47.9392H47.94H47.9408H47.9415H47.9423H47.9431H47.9439H47.9447H47.9455H47.9463H47.9471H47.9479H47.9487H47.9495H47.9503H47.9511H47.9519H47.9527H47.9535H47.9543H47.9551H47.9559H47.9567H47.9575H47.9583H47.9591H47.9599H47.9607H47.9615H47.9623H47.9631H47.9639H47.9647H47.9656H47.9664H47.9672H47.968H47.9688H47.9696H47.9704H47.9712H47.972H47.9728H47.9736H47.9744H47.9752H47.9761H47.9769H47.9777H47.9785H47.9793H47.9801H47.9809H47.9817H47.9825H47.9834H47.9842H47.985H47.9858H47.9866H47.9874H47.9882H47.9891H47.9899H47.9907H47.9915H47.9923H47.9931H47.994H47.9948H47.9956H47.9964H47.9972H47.9981H47.9989H47.9997H48.0005H48.0013H48.0022H48.003H48.0038H48.0046H48.0055H48.0063H48.0071H48.0079H48.0088H48.0096H48.0104H48.0112H48.0121H48.0129H48.0137H48.0145H48.0154H48.0162H48.017H48.0179H48.0187H48.0195H48.0204H48.0212H48.022H48.0229H48.0237H48.0245H48.0253H48.0262H48.027H48.0279H48.0287H48.0295H48.0304H48.0312H48.032H48.0329H48.0337H48.0345H48.0354H48.0362H48.0371H48.0379H48.0387H48.0396H48.0404H48.0413H48.0421H48.043H48.0438H48.0446H48.0455H48.0463H48.0472H48.048H48.0489H48.0497H48.0506H48.0514H48.0523H48.0531H48.054H48.0548H48.0557H48.0565H48.0574H48.0582H48.0591H48.0599H48.0608H48.0616H48.0625H48.0633H48.0642H48.065H48.0659H48.0667H48.0676H48.0685H48.0693H48.0702H48.071H48.0719H48.0727H48.0736H48.0745H48.0753H48.0762H48.077H48.0779H48.0788H48.0796H48.0805H48.0814H48.0822H48.0831H48.084H48.0848H48.0857H48.0866H48.0874H48.0883H48.0892H48.09H48.0909H48.0918H48.0926H48.0935H48.0944H48.0952H48.0961H48.097H48.0979H48.0987H48.0996H48.1005H48.1014H48.1022H48.1031H48.104H48.1049H48.1058H48.1066H48.1075H48.1084H48.1093H48.1101H48.111H48.1119H48.1128H48.1137H48.1146H48.1154H48.1163H48.1172H48.1181H48.119H48.1199H48.1209Z" fill="#007AFF" stroke="white" stroke-width="0.2"/>
<path d="M22.8207 31.8311L22.8207 31.8311C22.8144 28.8716 25.22 26.4621 28.1766 26.4652C31.1217 26.4684 33.5095 28.8505 33.5252 31.8031C33.5409 34.7357 31.1481 37.1487 28.2059 37.1665C25.247 37.1842 22.8259 34.7861 22.8207 31.8311ZM31.9005 31.8274C31.9082 29.7788 30.2347 28.0977 28.1813 28.0912L24.5348 31.8089L24.4348 31.8082C24.4348 31.8082 24.4348 31.8083 24.4348 31.8083C24.4205 33.8288 26.1243 35.5391 28.1621 35.5544C30.1922 35.5697 31.8928 33.872 31.9005 31.8274Z" fill="#007AFF" stroke="white" stroke-width="0.2"/>
<path d="M20.0379 21.0184C21.4809 21.0513 22.6472 22.2536 22.6144 23.6646C22.5805 25.1244 21.3697 26.2893 19.9365 26.2483L19.8599 26.2461C18.4458 26.166 17.3282 24.989 17.3594 23.602C17.3923 22.1437 18.5944 20.9856 20.0379 21.0184ZM20.0379 21.0184L20.0402 20.9184M20.0379 21.0184L20.0402 20.9184M20.0402 20.9184C21.5366 20.9525 22.7485 22.1989 22.7144 23.6669C22.68 25.1467 21.4794 26.3364 20.0336 26.3493L20.0402 20.9184ZM19.9904 22.6348C19.4374 22.6325 18.9705 23.1116 18.9895 23.6629L18.9895 23.6629C19.0085 24.2058 19.4635 24.6414 20.0047 24.6319L20.1029 24.6302V24.6241C20.5965 24.5647 20.9909 24.1304 20.9875 23.6268V23.6268C20.984 23.0936 20.5237 22.636 19.9904 22.6348ZM19.9904 22.6348C19.9905 22.6348 19.9905 22.6348 19.9905 22.6348L19.9901 22.7348L19.9903 22.6348C19.9904 22.6348 19.9904 22.6348 19.9904 22.6348Z" fill="#007AFF" stroke="white" stroke-width="0.2"/>
<path d="M35.3623 40.0013C35.3612 39.4616 35.8082 39.0093 36.3475 39.001L36.4491 38.9994V39.0062C36.9388 39.0525 37.3459 39.4767 37.3592 39.9782L35.3623 40.0013ZM35.3623 40.0013C35.3623 40.5594 35.8376 41.0184 36.3934 40.997M35.3623 40.0013L36.3934 40.997M36.3934 40.997C36.3934 40.997 36.3933 40.997 36.3933 40.997L36.3896 40.8971L36.3934 40.997ZM36.3934 40.997C36.932 40.9768 37.3735 40.5124 37.3592 39.9783L36.3934 40.997ZM33.7408 40.0172L33.7408 40.0171C33.7254 38.5761 34.9178 37.3719 36.3586 37.3719C37.7858 37.3719 38.9631 38.5447 38.9754 39.9818C38.9878 41.4274 37.7993 42.6283 36.3576 42.6273C34.9305 42.6262 33.7552 41.4555 33.7408 40.0172Z" fill="#007AFF" stroke="white" stroke-width="0.2"/>
<path d="M20.9848 39.9878L20.9848 39.9879C20.9848 39.9879 20.9848 39.9878 20.9848 39.9878ZM20.9848 39.9878L20.9848 39.9867M20.9848 39.9878L20.9848 39.9867M20.9848 39.9867C20.9765 39.4465 20.526 39.0018 19.9861 39.003M20.9848 39.9867L19.9861 39.003M19.9861 39.003C19.4301 39.0042 18.9697 39.4801 18.9911 40.0347M19.9861 39.003L19.9863 39.103L18.9911 40.0347M18.9911 40.0347C19.0113 40.5736 19.4743 41.0112 20.0113 40.9969L18.9911 40.0347ZM22.6159 40.0149V40.0149C22.6005 41.4563 21.3704 42.6599 19.9546 42.6261L19.9546 42.6261C18.5178 42.5922 17.3445 41.3947 17.3599 39.984L17.3599 39.984C17.3753 38.5427 18.6054 37.339 20.0212 37.3728L20.0213 37.3728C21.4581 37.4067 22.6313 38.6042 22.6159 40.0149ZM20.9848 39.9883H20.9848L20.0113 40.9969C20.5502 40.9827 20.9927 40.5263 20.9848 39.9886V39.9883Z" fill="#007AFF" stroke="white" stroke-width="0.2"/>
<path d="M42.3278 28.4245C42.4952 28.9125 42.784 29.1521 43.2221 29.1543L43.2231 29.1532C43.787 29.1564 44.2186 28.6461 44.1003 28.0698L42.3278 28.4245ZM42.3278 28.4245C42.2385 28.1645 42.1555 27.9015 42.0725 27.6386C41.8851 27.0452 41.6978 26.4519 41.4379 25.8923C39.5396 21.808 36.4167 19.1128 32.098 17.8131C32.0281 17.7921 31.9575 17.7728 31.887 17.7535C31.7318 17.7111 31.5767 17.6686 31.4287 17.6086M42.3278 28.4245L31.4287 17.6086M43.7369 26.7563L43.6423 26.7887C43.7882 27.2146 43.9117 27.6504 44.0024 28.0899C44.1079 28.6039 43.7241 29.056 43.2237 29.0532L43.1819 29.053L43.1815 29.0533C43.001 29.0455 42.8555 28.9915 42.7368 28.8942C42.6077 28.7884 42.5022 28.6248 42.4224 28.3921L42.4224 28.3921C42.3349 28.1372 42.2528 27.8772 42.1702 27.6157C41.9819 27.0194 41.7913 26.4158 41.5286 25.8502L41.5286 25.8502C39.6182 21.7398 36.4727 19.0252 32.1268 17.7173L32.1267 17.7173C32.0516 17.6948 31.9783 17.6747 31.9065 17.6551C31.7544 17.6135 31.6088 17.5737 31.4663 17.5159L31.4662 17.5158C31.0424 17.3445 30.8468 16.9304 30.9709 16.5337L30.9709 16.5337C31.102 16.1149 31.5122 15.8648 31.9614 16.0119L31.9925 15.9169M43.7369 26.7563L43.6423 26.7888C42.1543 22.4603 39.371 19.2448 35.2724 17.2145L35.2724 17.2145C34.4444 16.8041 33.5537 16.5208 32.6577 16.2359C32.4256 16.1621 32.1931 16.0881 31.9612 16.0118L31.9925 15.9169M43.7369 26.7563C42.2404 22.4035 39.4394 19.1671 35.3168 17.1249C34.4813 16.7108 33.5812 16.4245 32.6843 16.1394C32.4531 16.0659 32.2221 15.9924 31.9925 15.9169M43.7369 26.7563L30.8755 16.5038M31.9925 15.9169C31.4852 15.7507 31.0215 16.0372 30.8755 16.5038M30.8755 16.5038C30.7348 16.9534 30.9597 17.4189 31.4287 17.6086M30.8755 16.5038L31.4287 17.6086" fill="#007AFF" stroke="white" stroke-width="0.2"/>
</svg>
