<svg width="60" height="60" viewBox="0 0 60 60" fill="none" xmlns="http://www.w3.org/2000/svg">
<rect x="0.5" y="0.5" width="59" height="59" rx="11.5" fill="white" stroke="#EBEBEB"/>
<path d="M14.9258 21.5593C14.1064 21.5593 13.4204 21.5593 12.7344 21.5593C11.5721 21.5499 10.7146 20.7239 10.7241 19.6445C10.7241 18.5839 11.5721 17.7673 12.7058 17.7392C13.5062 17.7204 14.316 17.7016 15.1163 17.7486C15.6118 17.7767 16.0977 17.9363 16.6598 18.0489C16.6789 18.0114 16.736 17.8894 16.7932 17.758C17.3649 16.3219 17.927 14.8952 18.4987 13.4591C19.1465 11.8166 20.3565 11 22.1668 11C27.407 11 32.6472 11 37.8874 11C39.6691 11 40.8886 11.8166 41.527 13.4498C42.1367 15.0078 42.756 16.5565 43.3848 18.1428C44.7378 17.4764 46.1479 17.7767 47.5294 17.7767C48.5393 17.7767 49.3206 18.6778 49.311 19.6821C49.3015 20.677 48.5012 21.5218 47.4913 21.5593C46.7386 21.5875 45.9859 21.5593 45.0998 21.5593C45.4333 21.869 45.6715 22.1037 45.9192 22.3196C46.8434 23.1268 47.7771 23.9246 48.7203 24.713C49.3301 25.2199 49.7493 25.8393 49.9589 26.5996C50.0828 27.0408 49.8922 27.4256 49.4921 27.5476C49.0728 27.6696 48.6727 27.4631 48.5774 27.0126C48.4631 26.4776 48.1487 26.1021 47.7485 25.7455C46.4908 24.6473 45.2523 23.5304 43.9851 22.4322C43.8517 22.3196 43.6135 22.2633 43.423 22.2633C41.041 22.2539 38.6591 22.2633 36.2772 22.2633C29.7413 22.2633 23.2053 22.2633 16.6693 22.2633C16.3454 22.2633 16.1263 22.3665 15.8976 22.5824C14.6876 23.6712 13.4681 24.7506 12.239 25.8018C11.7054 26.2617 11.4387 26.7873 11.4387 27.4819C11.4482 29.6782 11.4387 31.8839 11.4387 34.0803C11.4387 35.46 12.3247 36.3423 13.7253 36.3423C15.7356 36.3423 17.746 36.3423 19.7563 36.3423C20.0135 36.3423 20.1565 36.2766 20.2422 36.0138C20.4613 35.3756 20.7091 34.7467 20.9377 34.1178C21.0902 33.7048 21.3665 33.5171 21.8143 33.5171C24.2533 33.5171 26.7019 33.5171 29.141 33.5171C29.6841 33.5171 30.0271 33.8175 30.0176 34.2398C30.008 34.6622 29.6841 34.9156 29.1506 34.9156C26.9783 34.9156 24.8059 34.925 22.6336 34.9156C22.2621 34.9156 22.1001 35.0189 22.0048 35.3568C21.9191 35.6665 21.7952 35.9575 21.6618 36.3329H22.1763C24.5773 36.3329 26.9687 36.3329 29.3697 36.3329C29.5221 36.3329 29.6746 36.3235 29.8175 36.3611C30.17 36.455 30.3891 36.699 30.3701 37.065C30.351 37.4405 30.1224 37.6845 29.7317 37.7315C29.5888 37.7502 29.4364 37.7315 29.2839 37.7315C26.1398 37.7315 23.0052 37.7315 19.8611 37.7315C19.6991 37.7315 19.5372 37.7315 19.3276 37.7315C19.3276 38.3885 19.3276 39.0173 19.3276 39.6462C19.3276 41.0917 18.4605 41.9552 17.0028 41.9552C15.6785 41.9552 14.3541 41.9552 13.0298 41.9552C11.6388 41.9552 10.7527 41.0635 10.7527 39.6838C10.7527 38.6888 10.7622 37.6845 10.7527 36.6896C10.7527 36.4737 10.686 36.2297 10.5717 36.042C10.1906 35.4788 10 34.8593 10 34.1835C10 31.9215 10 29.6688 10 27.4068C10 26.3462 10.4192 25.4827 11.2386 24.7881C12.3247 23.8683 13.3918 22.9297 14.4589 22.0004C14.5923 21.8878 14.7162 21.7658 14.9258 21.5593ZM17.079 20.8366H42.9466C42.8894 20.6958 42.8513 20.5738 42.8037 20.4517C41.9366 18.2836 41.0601 16.1248 40.1931 13.9566C39.7548 12.8678 39.0688 12.3985 37.8683 12.3985C32.6281 12.3985 27.3879 12.3985 22.1477 12.3985C20.9473 12.3985 20.2613 12.8678 19.823 13.9566C18.956 16.1248 18.0794 18.2836 17.2124 20.4517C17.1648 20.5738 17.1267 20.6958 17.0695 20.8366H17.079ZM12.1437 37.525C12.1437 38.3228 12.1247 39.1112 12.1437 39.8996C12.1532 40.3032 12.4105 40.566 12.8297 40.566C14.2684 40.5754 15.7071 40.5754 17.1553 40.566C17.5078 40.566 17.8031 40.3595 17.8222 40.031C17.8698 39.2802 17.8412 38.5293 17.8412 37.769C15.9357 37.6658 14.0492 37.9567 12.1532 37.525H12.1437ZM14.1064 20.1514C14.5542 20.1514 15.002 20.1232 15.4403 20.1608C15.8404 20.1983 15.9548 19.9355 15.9738 19.6727C15.9738 19.5413 15.7642 19.3536 15.6118 19.2503C15.4879 19.1659 15.2974 19.1565 15.1449 19.1471C14.3446 19.1377 13.5443 19.1471 12.744 19.1471C12.3914 19.1471 12.1532 19.3066 12.1628 19.6633C12.1723 19.9918 12.401 20.1514 12.7344 20.1514C13.1918 20.1514 13.6586 20.1514 14.1159 20.1514H14.1064ZM45.9001 20.1514C46.3479 20.1514 46.7862 20.1514 47.234 20.1514C47.6056 20.1514 47.8628 20.0106 47.8533 19.6258C47.8533 19.2691 47.577 19.1377 47.2435 19.1377C46.4718 19.1377 45.7001 19.1377 44.9283 19.1377C44.7663 19.1377 44.5853 19.1471 44.4519 19.2222C44.2804 19.316 44.0232 19.4944 44.0327 19.6164C44.0518 19.9074 44.1661 20.1983 44.6139 20.1514C45.0427 20.1045 45.4714 20.142 45.9001 20.142V20.1514Z" fill="#007AFF"/>
<path d="M35.7729 42.1334C35.6967 42.2461 35.6205 42.3962 35.5061 42.5089C33.5434 44.4518 31.5807 46.3947 29.599 48.3282C28.3604 49.539 26.3786 49.0416 25.9594 47.4084C25.7403 46.5824 26.0166 45.8878 26.6168 45.2871C28.1031 43.8323 29.5895 42.3587 31.0662 40.9039C31.5522 40.4252 32.0285 39.9371 32.524 39.4772C32.7526 39.2707 32.8003 39.1111 32.6288 38.8108C30.5232 35.1314 31.2187 30.5323 34.4104 27.6695C37.183 25.1822 40.451 24.5346 43.9571 25.8111C47.4252 27.0782 49.4832 29.6406 49.9214 33.2824C50.3597 36.9336 48.9687 39.9089 45.8722 41.9457C42.7567 44.0013 39.4601 44.0388 36.1445 42.3118C36.0492 42.2648 35.9635 42.2179 35.7634 42.1147L35.7729 42.1334ZM40.7273 26.6465C36.316 26.6746 32.8479 30.1381 32.8765 34.4838C32.9051 38.6981 36.5065 42.171 40.813 42.1334C45.129 42.0959 48.6352 38.5855 48.5971 34.343C48.559 30.0724 45.0338 26.6183 40.7273 26.6465ZM34.601 41.4295C34.258 41.054 33.9626 40.7161 33.6387 40.3595C31.6284 42.3399 29.6276 44.311 27.6363 46.2821C27.2457 46.6669 27.2075 47.0893 27.522 47.399C27.8459 47.7087 28.2461 47.6712 28.6558 47.277C29.7038 46.2539 30.7423 45.2214 31.7808 44.1984C32.7336 43.2598 33.6959 42.3212 34.601 41.4295Z" fill="#007AFF"/>
<path d="M24.0154 27.9043C24.3394 28.383 24.5776 28.7866 24.8729 29.1527C24.9587 29.2559 25.1778 29.3028 25.3302 29.3028C26.8451 29.3122 28.36 29.3028 29.8845 29.3028C30.0178 29.3028 30.1512 29.2934 30.2846 29.3122C30.6657 29.3873 30.8944 29.622 30.9039 30.0068C30.9039 30.3728 30.6276 30.6732 30.237 30.692C29.8178 30.7107 29.4081 30.692 28.9889 30.692C27.5883 30.692 26.1877 30.6826 24.7967 30.692C24.3775 30.692 24.1012 30.5418 23.8725 30.2039C23.3199 29.3685 22.7578 28.5426 22.1957 27.7166C22.0146 27.4444 21.8908 27.1722 22.0527 26.8531C22.2242 26.5152 22.5291 26.4589 22.8816 26.4589C25.8257 26.4589 28.7697 26.4589 31.7138 26.4589C32.314 26.4589 32.6379 26.7123 32.6284 27.1816C32.6284 27.6227 32.314 27.8668 31.7328 27.8668C29.3509 27.8668 26.969 27.8668 24.5966 27.8668C24.4346 27.8668 24.2822 27.8668 24.025 27.8668L24.0154 27.9043Z" fill="#007AFF"/>
<path d="M18.613 30.7108C17.8412 30.7108 17.0695 30.7296 16.2882 30.7108C14.4875 30.6639 12.9726 29.209 12.8678 27.4445C12.8297 26.7874 13.0965 26.4965 13.7729 26.4965C15.526 26.4965 17.2886 26.4965 19.0417 26.4965C19.4419 26.4965 19.7182 26.6279 19.9373 26.9564C20.4994 27.8011 21.0711 28.6459 21.6428 29.4812C21.8238 29.7534 21.9381 30.0256 21.7666 30.3447C21.5951 30.6545 21.3093 30.7296 20.9758 30.7296C20.185 30.7296 19.3942 30.7296 18.613 30.7296V30.7108ZM19.7944 29.2841C19.642 29.0495 19.5086 28.9087 19.4323 28.7397C19.1179 28.0264 18.5844 27.8293 17.8126 27.8856C16.7074 27.9513 15.6022 27.9044 14.478 27.9044C14.6399 28.6083 15.3259 29.2372 16.1167 29.2747C17.3077 29.331 18.5082 29.2935 19.7849 29.2935L19.7944 29.2841Z" fill="#007AFF"/>
<path d="M39.6501 35.5163C40.8602 34.3243 42.0225 33.1698 43.1849 32.0247C43.2992 31.9121 43.404 31.7807 43.5469 31.6962C43.8614 31.4991 44.1758 31.5179 44.4425 31.7713C44.7093 32.0247 44.7379 32.3345 44.5378 32.6536C44.4616 32.7662 44.3663 32.8601 44.2711 32.9446C42.9658 34.2305 41.67 35.5163 40.3647 36.7929C39.8216 37.3185 39.5072 37.3279 38.9737 36.7929C38.3544 36.1828 37.7256 35.5727 37.1158 34.9626C36.7347 34.5871 36.7061 34.1929 37.011 33.8832C37.3159 33.5734 37.7541 33.6016 38.1448 33.9864C38.6402 34.4745 39.1261 34.9626 39.6597 35.507L39.6501 35.5163Z" fill="#007AFF"/>
</svg>
