<svg width="60" height="60" viewBox="0 0 60 60" fill="none" xmlns="http://www.w3.org/2000/svg">
<rect width="60" height="60" fill="#1E1E1E"/>
<g id="Home-V5" clip-path="url(#clip0_0_1)">
<rect width="1600" height="6492" transform="translate(-905 -1346)" fill="#EBEBEB"/>
<rect id="Rectangle 494" x="-750" y="-164" width="1290" height="543" rx="16" fill="white"/>
<g id="Group 1686566492">
<g id="Group 1686566491">
<g id="Group 1686566488">
<g id="Group 1686566450">
<rect id="Rectangle 514" x="0.5" y="0.5" width="59" height="59" rx="11.5" fill="white" stroke="#EBEBEB"/>
<g id="Group 1686566507">
<path id="Vector" d="M35.9825 10C36.2899 10.1659 36.6289 10.2922 36.8981 10.5062C37.4019 10.9049 37.5951 11.4622 37.5909 12.0968C37.5835 13.3335 37.5973 14.5703 37.5846 15.8071C37.5804 16.1891 37.705 16.473 38.0007 16.7234C39.1106 17.6638 40.2047 18.624 41.3061 19.5727C42.4372 20.5465 42.9948 21.7791 42.9958 23.2538C42.999 30.5847 43.0043 37.9145 42.9937 45.2453C42.9895 47.9673 40.9048 49.9962 38.1464 49.9972C32.3761 50.0004 26.6058 50.0014 20.8344 49.9972C18.0865 49.9952 16.0072 47.9495 16.004 45.2286C15.9977 38.2892 15.9998 31.3497 16.004 24.4092C16.0061 22.1308 17.2808 20.4504 19.4922 19.7553C23.0384 18.6407 26.5836 17.5219 30.1288 16.4041C30.7477 16.2089 30.8459 16.0743 30.8459 15.4209C30.8459 14.4315 30.8459 13.4421 30.8459 12.4527C30.8459 11.0239 31.1828 10.526 32.5028 10H35.9815H35.9825ZM32.1945 14.6914C32.1945 14.9617 32.1945 15.1934 32.1945 15.4261C32.1945 16.6754 31.7446 17.2964 30.5459 17.6742C27.0018 18.791 23.4556 19.9046 19.9104 21.0182C18.2386 21.5432 17.3558 22.7173 17.3547 24.4436C17.3515 31.3424 17.3505 38.2411 17.3547 45.1399C17.3558 47.2544 18.7941 48.6665 20.9263 48.6676C26.6427 48.6697 32.3581 48.6697 38.0746 48.6676C40.2047 48.6676 41.6441 47.2523 41.6451 45.1378C41.6504 37.8748 41.6451 30.6118 41.6494 23.3488C41.6494 22.2143 41.246 21.277 40.3673 20.5308C39.2489 19.5811 38.1517 18.6062 37.0344 17.6544C36.4873 17.1879 36.2297 16.6097 36.2381 15.9031C36.2423 15.5044 36.2381 15.1057 36.2381 14.6903H32.1923L32.1945 14.6914ZM32.1987 13.3085H36.2339C36.2339 12.8378 36.2487 12.3963 36.2297 11.958C36.2128 11.5833 35.954 11.3422 35.557 11.337C34.6646 11.3244 33.7712 11.3244 32.8777 11.337C32.4933 11.3432 32.224 11.5948 32.204 11.9663C32.1807 12.4047 32.1987 12.844 32.1987 13.3074V13.3085Z" fill="#007AFF"/>
<path id="Vector_2" d="M40.2951 35.0015C40.2951 38.334 40.2951 41.6654 40.2951 44.9979C40.2951 46.5718 39.5147 47.3368 37.9137 47.3368C32.25 47.3368 26.5864 47.3347 20.9238 47.3399C20.1296 47.3399 19.4453 47.0989 19.0482 46.4058C18.8444 46.05 18.7198 45.598 18.7187 45.1889C18.6987 38.3945 18.7018 31.6001 18.7071 24.8057C18.7082 23.4844 19.5541 22.664 20.8879 22.664C26.617 22.662 32.3461 22.662 38.0752 22.664C39.4587 22.664 40.2898 23.4781 40.2919 24.8506C40.2972 28.2352 40.294 31.6189 40.294 35.0036L40.2951 35.0015ZM38.9412 35.0015C38.9412 31.6565 38.9412 28.3114 38.9412 24.9675C38.9412 24.1857 38.748 23.9937 37.9675 23.9937C32.3313 23.9937 26.6951 23.9937 21.0589 23.9937C20.2479 23.9937 20.0599 24.1795 20.0599 24.981C20.0599 31.6575 20.0599 38.334 20.0599 45.0104C20.0599 45.8172 20.2479 46.0051 21.0526 46.0051C26.6761 46.0051 32.2986 46.0051 37.9221 46.0051C38.7606 46.0051 38.9423 45.8266 38.9423 44.9979C38.9423 41.6665 38.9423 38.334 38.9423 35.0025L38.9412 35.0015Z" fill="#007AFF"/>
<path id="Vector_3" d="M30.0864 25.3412C32.7835 25.6606 34.7848 26.819 36.2252 28.8939C36.9687 29.9647 37.3869 31.1608 37.5464 32.4477C37.6066 32.933 37.4503 33.3369 37.088 33.6782C36.9782 33.7825 36.8906 33.9527 36.8716 34.1019C36.5389 36.6756 35.2167 38.5814 32.9208 39.8224C32.6621 39.9622 32.6452 40.0791 32.7138 40.3348C33.2683 42.4149 32.0316 44.3415 29.9755 44.6254C27.6289 44.9489 25.7143 42.9044 26.2159 40.6093C26.3053 40.2009 26.1677 39.893 25.803 39.6856C23.0129 38.0982 21.5978 34.9796 22.2367 31.8256C22.8439 28.8292 25.4101 26.4767 28.5097 26.0853C28.817 26.0467 29.0525 25.9444 29.2943 25.7284C29.5383 25.5113 29.9016 25.4278 30.0864 25.3433V25.3412ZM28.8212 27.4171C26.3447 27.4578 23.882 29.8092 23.4987 32.4111C23.0298 35.5912 25.1155 38.0178 26.9045 38.6826C27.1991 38.1149 27.4937 37.545 27.7947 36.9658C27.6353 36.8718 27.5106 36.803 27.3892 36.7268C26.2233 35.992 25.5506 34.9452 25.4746 33.5811C25.3626 31.5835 26.5729 29.9929 28.5456 29.445C28.6533 29.4147 28.8054 29.2832 28.8096 29.1934C28.8339 28.6121 28.8223 28.0287 28.8223 27.416L28.8212 27.4171ZM26.8062 33.5561C26.84 34.3691 27.3026 35.1477 28.2034 35.6747C28.3851 35.7812 28.5076 35.7781 28.685 35.633C29.1803 35.2301 29.7991 35.2134 30.2796 35.61C30.5014 35.7927 30.6524 35.7593 30.8626 35.6372C31.9809 34.989 32.4762 33.6385 32.0337 32.4247C31.5891 31.2046 30.3324 30.4939 29.0081 30.712C27.7504 30.9197 26.8052 32.0469 26.8062 33.5571V33.5561ZM30.1782 26.7356C30.1782 27.5715 30.1698 28.3752 30.1899 29.1788C30.192 29.2717 30.3335 29.3959 30.4391 29.4439C30.8066 29.612 31.2111 29.7111 31.5585 29.9105C32.6177 30.5179 33.2313 31.4551 33.4879 32.6293H36.1925C35.8472 29.2289 32.943 26.9015 30.1782 26.7356ZM29.496 36.684C29.2193 37.187 28.9553 37.6087 28.7483 38.0554C28.3344 38.9498 27.894 39.8401 27.5729 40.7679C27.2762 41.629 27.6331 42.4775 28.3407 42.968C29.0176 43.4377 29.9153 43.4523 30.6049 43.0066C31.3294 42.538 31.6821 41.7052 31.455 40.8285C31.0696 39.3423 30.2448 38.0543 29.4971 36.6829L29.496 36.684ZM35.523 33.9954C34.9178 33.9954 34.3539 34.0048 33.79 33.9902C33.564 33.984 33.4795 34.0549 33.4214 34.2772C33.1247 35.418 32.4424 36.2738 31.4033 36.8531C31.3378 36.8896 31.2808 36.9407 31.2132 36.9898C31.5205 37.5753 31.8194 38.1451 32.1288 38.7327C34.0814 37.7037 35.1977 36.158 35.523 33.9944V33.9954Z" fill="#007AFF"/>
<path id="Vector_4" d="M30.1655 33.3463C30.1571 33.7199 29.854 34.0017 29.4749 33.9892C29.0989 33.9767 28.8159 33.6709 28.8349 33.2972C28.8528 32.9445 29.1528 32.6627 29.5055 32.6658C29.8751 32.6689 30.175 32.9779 30.1666 33.3463H30.1655Z" fill="#007AFF"/>
</g>
</g>
</g>
</g>
</g>
</g>
<defs>
<clipPath id="clip0_0_1">
<rect width="1600" height="6492" fill="white" transform="translate(-905 -1346)"/>
</clipPath>
</defs>
</svg>
