<svg width="60" height="60" viewBox="0 0 60 60" fill="none" xmlns="http://www.w3.org/2000/svg">
<rect x="0.5" y="0.5" width="59" height="59" rx="11.5" fill="white" stroke="#EBEBEB"/>
<path d="M10.001 13.5803C10.5456 13.616 11.0967 13.6103 11.6333 13.6962C12.8022 13.8834 13.7668 14.4822 14.6163 15.2958C17.3339 17.8977 20.0563 20.4932 22.777 23.0911C23.1906 23.4857 23.6065 23.8779 24.0457 24.2952C24.1439 24.1389 24.2267 24.0084 24.308 23.8763C26.0481 21.0475 27.7954 18.2235 29.5251 15.3882C30.9876 12.9912 33.0737 11.5391 35.8395 11.0959C36.134 11.0489 36.4348 11.0351 36.7325 11.0108C36.8347 11.0027 36.9376 11.0092 37.1009 11.0092V12.219C36.3624 12.3568 35.6505 12.437 34.9699 12.6274C33.2893 13.0974 31.9337 14.0779 30.9796 15.5405C29.8517 17.2697 28.797 19.0484 27.723 20.8125C27.6579 20.9194 27.653 21.1163 27.7037 21.2355C28.3674 22.7718 29.0416 24.3042 29.7318 25.8284C29.7938 25.9645 29.9732 26.1104 30.1172 26.1355C31.9249 26.4426 33.7358 26.7303 35.5483 27.0114C35.6529 27.0276 35.8057 26.9685 35.8838 26.8907C37.7574 25.014 39.6238 23.13 41.491 21.2468C41.5087 21.229 41.516 21.2014 41.5401 21.1569C39.3776 20.2226 38.8386 18.4261 39.0655 16.2155H37.1275V14.9263H39.0044C39.0382 14.6597 39.0542 14.4279 39.0977 14.2019C39.4621 12.3065 41.1242 10.9419 42.989 11.0019C44.9431 11.0651 46.5448 12.4888 46.721 14.4498C46.824 15.5932 46.7765 16.7544 46.7355 17.9058C46.7057 18.7437 46.3308 19.4682 45.7814 20.0953C45.7299 20.1537 45.6832 20.2161 45.6366 20.2777C45.6293 20.2866 45.6309 20.302 45.6245 20.3295C45.7516 20.3854 45.8827 20.4413 46.0115 20.5005C47.3903 21.1317 48.3187 22.1754 48.6421 23.664C49.1168 25.8511 49.5182 28.0535 49.9398 30.2519C49.9937 30.5323 49.9977 30.8256 49.9977 31.1125C50.0009 36.8949 50.0001 42.6774 50.0001 48.4599C50.0001 49.5052 49.5094 49.9987 48.4667 49.9987C45.421 49.9995 42.3744 50.0019 39.3286 49.9971C38.2047 49.9954 37.4501 49.0474 37.8427 48.0709C37.9762 47.7379 38.294 47.4332 38.6013 47.229C39.0647 46.9211 39.6037 46.7331 40.0872 46.4519C40.2513 46.3563 40.4082 46.1505 40.4549 45.9657C40.6021 45.3863 40.6954 44.7932 40.8185 44.1579H26.781C26.781 43.6012 26.7786 43.0834 26.781 42.5648C26.7874 41.4838 26.6547 40.4255 26.3329 39.3883C25.0883 35.3845 20.9669 32.6805 16.8399 33.144C14.5705 33.3992 12.667 34.3586 11.1047 36.0255C10.7395 36.4152 10.3686 36.8001 10.001 37.1875C10.001 29.3184 10.001 21.4494 10.001 13.5803ZM41.409 38.9378C41.409 38.0124 41.4235 37.1494 41.3961 36.2872C41.3905 36.1203 41.2577 35.9039 41.1178 35.8083C40.9456 35.6908 40.7075 35.66 40.4927 35.6203C38.1661 35.1925 35.8387 34.767 33.5097 34.3497C33.2877 34.31 33.2032 34.2185 33.2145 33.9883C33.2322 33.635 33.2193 33.2809 33.2193 32.9268C33.2193 32.1311 33.2193 31.3345 33.2193 30.491H39.5796C38.829 29.4149 37.899 28.7391 36.689 28.5324C34.1002 28.0908 31.5041 27.6954 28.9137 27.2618C26.6177 26.8777 24.3289 26.4466 21.9814 26.5893C21.691 26.6071 21.5993 26.6695 21.5599 26.9782C21.411 28.1313 21.2389 29.2828 21.0249 30.4245C20.9155 31.0088 20.6999 31.5736 20.5269 32.1667C20.6677 32.217 20.7875 32.2615 20.9082 32.3029C24.0071 33.3765 26.168 35.4485 27.3795 38.5115C27.5042 38.8259 27.6289 38.9475 27.9797 38.9467C32.3263 38.9329 36.6722 38.9378 41.0188 38.9378H41.4098H41.409ZM11.3115 34.0491C13.6984 32.2461 16.3082 31.5193 19.2075 31.9082C19.8664 30.1968 20.2268 28.4538 20.3049 26.5982C20.1255 26.5982 19.9718 26.5982 19.8189 26.5982C18.2188 26.5982 16.6187 26.5933 15.0186 26.6006C14.4112 26.6039 13.8625 26.4588 13.3855 26.0682C13.3187 26.0139 13.231 25.9524 13.1514 25.9515C12.544 25.9418 11.9366 25.9459 11.3115 25.9459V34.0491ZM41.5747 31.7543C41.5353 31.7462 41.5731 31.7616 41.6101 31.7607C43.9825 31.7073 46.2439 31.1619 48.4056 30.1903C48.4941 30.1506 48.5713 29.9448 48.5544 29.8306C48.4836 29.3517 48.375 28.8792 48.2801 28.4044C47.9752 26.8907 47.6848 25.373 47.3574 23.8642C47.1949 23.1162 46.7612 22.5312 46.0557 22.0085C46.2898 23.2572 45.7323 24.057 44.9648 24.8049C43.5151 26.2181 42.1049 27.6719 40.6785 29.1102C40.5812 29.2082 40.4903 29.3128 40.4709 29.3338C40.8539 30.1741 41.2038 30.9415 41.5747 31.7551V31.7543ZM45.034 32.7169C45.89 36.8852 46.2029 41.141 46.1185 45.4204H48.6735V31.5703C47.4636 31.952 46.2777 32.3247 45.034 32.7169ZM28.0987 42.8225H41.5546V40.2797H27.937C27.9917 41.1402 28.0456 41.9732 28.0995 42.8225H28.0987ZM44.8297 45.4285C44.9141 41.1872 44.6068 37.0246 43.7484 32.909C43.0099 32.977 42.3277 33.0402 41.6198 33.1059C41.6198 33.5548 41.6069 33.9729 41.6286 34.3894C41.6342 34.4923 41.7324 34.6196 41.8233 34.6836C42.3888 35.0798 42.6873 35.6244 42.709 36.3091C42.7782 38.4718 42.8353 40.6346 42.8941 42.7973C42.9061 43.2487 42.7163 43.6028 42.3719 43.888C42.2698 43.9731 42.1604 44.093 42.1306 44.2154C42.0333 44.6076 41.9721 45.0095 41.8925 45.4276H44.8289L44.8297 45.4285ZM11.2938 14.9701C11.2938 15.4246 11.2793 15.816 11.3042 16.2058C11.3107 16.3022 11.4273 16.41 11.519 16.4789C11.9004 16.769 12.3324 17.0031 12.6703 17.3362C14.1497 18.7932 15.626 20.255 17.0596 21.7573C18.255 23.0101 19.5502 24.134 20.9605 25.1299C21.0538 25.1963 21.1592 25.2895 21.2614 25.2928C21.8792 25.3081 22.4979 25.3 23.2211 25.3C23.0297 25.1169 22.9122 25.0043 22.7931 24.8908C21.5647 23.7191 20.337 22.5466 19.1086 21.3756C17.2558 19.61 15.4063 17.841 13.548 16.081C12.9301 15.496 12.2133 15.0957 11.2946 14.9709L11.2938 14.9701ZM39.5498 28.4157C40.3221 27.6354 41.1379 26.8097 41.9544 25.9856C42.7903 25.142 43.6302 24.3025 44.4612 23.4549C44.8071 23.1016 44.9391 22.6786 44.7629 22.1957C44.5956 21.7362 44.2585 21.4753 43.7782 21.4129C43.3389 21.3554 43.0075 21.5612 42.7082 21.8635C40.9826 23.6073 39.253 25.347 37.5257 27.0884C37.4565 27.1581 37.3986 27.2383 37.3672 27.2756C38.0905 27.654 38.8 28.0252 39.549 28.4165L39.5498 28.4157ZM45.5022 16.2317H40.3253C40.3253 16.7382 40.298 17.2106 40.331 17.6798C40.4227 18.986 41.442 19.9989 42.7348 20.0986C43.9833 20.195 45.1611 19.3288 45.4057 18.0509C45.5175 17.4683 45.4741 16.8549 45.503 16.2317H45.5022ZM15.3098 22.0506C13.9961 20.7217 12.6437 19.3531 11.2922 17.9853C11.2922 18.4277 11.2922 18.9204 11.2922 19.413C11.2922 21.0361 11.2906 22.66 11.2946 24.2831C11.2946 24.4362 11.2246 24.6526 11.5038 24.6534C11.8513 24.655 12.1996 24.6534 12.585 24.6534C12.5327 23.8293 12.766 23.1494 13.3549 22.6122C13.9486 22.0701 14.6815 22.0255 15.3098 22.0498V22.0506ZM40.3479 34.2711C40.3133 33.5548 40.2779 32.8911 40.2521 32.2267C40.2393 31.9026 40.1057 31.7891 39.767 31.7932C38.154 31.8118 36.541 31.8013 34.928 31.8029C34.8033 31.8029 34.6778 31.8183 34.5218 31.8288C34.5218 32.2348 34.5057 32.614 34.533 32.9892C34.5403 33.0824 34.6794 33.225 34.7776 33.2436C36.6022 33.5896 38.43 33.9211 40.3479 34.2719V34.2711ZM45.4781 14.8898C45.4322 13.8834 45.0211 13.1306 44.1885 12.6574C43.2722 12.1364 42.3366 12.1688 41.4597 12.7587C40.7244 13.2538 40.3527 13.9693 40.3286 14.8898H45.4789H45.4781ZM18.9147 25.2992C18.2333 24.6631 17.5801 24.0505 16.9204 23.4444C16.86 23.3893 16.7611 23.3496 16.679 23.3488C16.0419 23.3439 15.4031 23.3237 14.7676 23.3601C14.2229 23.3909 13.8641 23.835 13.8826 24.3666C13.9003 24.8754 14.2784 25.2855 14.8102 25.2928C16.1738 25.3106 17.5374 25.2984 18.9139 25.2984L18.9147 25.2992ZM43.5183 48.5749L43.5755 48.656H48.6848V46.742C47.9237 46.742 47.1852 46.7558 46.4475 46.7347C46.1667 46.7266 46.0106 46.8125 45.8562 47.0532C45.7226 47.2614 45.5014 47.4364 45.2826 47.5612C44.8087 47.8311 44.3084 48.0531 43.8257 48.3083C43.709 48.3699 43.6205 48.4842 43.5183 48.5749ZM26.7705 22.3448C26.1615 23.3358 25.5855 24.2734 24.954 25.3009C26.1124 25.4905 27.1792 25.6655 28.3167 25.8527C27.7906 24.6607 27.2926 23.5303 26.7697 22.3456L26.7705 22.3448ZM39.0253 48.5539C39.0462 48.5976 39.0671 48.6414 39.088 48.6843H42.2609C42.2006 47.5199 43.0871 47.2185 43.8578 46.7866C43.1346 46.7452 42.425 46.7412 41.7163 46.7517C41.6471 46.7525 41.5763 46.8441 41.5111 46.9C41.2392 47.1326 40.9939 47.4081 40.693 47.5928C40.2505 47.8643 39.7662 48.0661 39.306 48.3092C39.199 48.3659 39.1178 48.4704 39.0245 48.5531L39.0253 48.5539Z" fill="#007AFF"/>
<path d="M10.0008 41.436C10.2389 40.5973 10.3845 39.7173 10.7321 38.9272C12.1424 35.7232 15.4906 33.977 19.0424 34.5215C22.3231 35.0247 24.9546 37.7587 25.4051 41.1321C25.9779 45.4236 23.0086 49.3682 18.7858 49.9241C14.5051 50.4881 10.6476 47.5094 10.0684 43.1944C10.0563 43.1052 10.0233 43.0185 10 42.931C10 42.4327 10 41.9343 10 41.436H10.0008ZM21.538 36.8804C21.2974 37.2944 21.0963 37.6396 20.8799 38.0124C20.497 37.7895 20.143 37.5837 19.7745 37.3698C19.9845 36.9865 20.1752 36.6381 20.406 36.2175C19.7142 36.0368 19.0811 35.8715 18.3828 35.6884V36.9792H17.094V35.6827C16.3884 35.8747 15.7585 36.0457 15.0795 36.2305C15.3193 36.6591 15.514 37.0076 15.7175 37.3714C15.3265 37.5951 14.9709 37.7984 14.6073 38.0067C14.3837 37.6275 14.1857 37.2928 13.9452 36.8852C13.4408 37.3957 12.9718 37.8698 12.477 38.3705C12.8978 38.6242 13.2373 38.8284 13.5912 39.0415C13.3644 39.4329 13.1584 39.7878 12.9484 40.1492C12.5655 39.932 12.2308 39.7424 11.8206 39.5098C11.6363 40.1994 11.4666 40.8339 11.2775 41.5405H12.5526V42.8565H11.2791C11.4658 43.5493 11.6395 44.1927 11.8246 44.8799C12.2502 44.6368 12.5856 44.4447 12.9509 44.2356C13.1681 44.6157 13.3724 44.9739 13.5896 45.3523C13.2252 45.5702 12.8857 45.7728 12.432 46.0443C12.9468 46.5718 13.4054 47.041 13.9138 47.5612C14.1946 47.0807 14.3965 46.7363 14.6081 46.3749C14.9975 46.601 15.3531 46.8076 15.7167 47.0183C15.5043 47.3975 15.3144 47.7371 15.0779 48.16C15.7633 48.3375 16.4037 48.5036 17.1068 48.6859V47.434H18.4029V48.6892C19.1028 48.502 19.7383 48.3326 20.4077 48.1544C20.1655 47.7233 19.9765 47.3854 19.7721 47.0215C20.155 46.8003 20.5106 46.5937 20.8767 46.3814C21.0987 46.7525 21.3031 47.0937 21.5661 47.5337C22.0866 47.024 22.5564 46.5645 23.0802 46.0516C22.5934 45.7639 22.2515 45.5613 21.8943 45.3498C22.1204 44.9601 22.3264 44.6043 22.5404 44.2356C22.9193 44.452 23.2547 44.6432 23.669 44.8799C23.8525 44.1789 24.0198 43.538 24.2024 42.8387H22.9281V41.5357H24.2064C24.0166 40.8323 23.8444 40.1913 23.661 39.5131C23.2354 39.7546 22.8983 39.9458 22.5363 40.1508C22.3167 39.77 22.1108 39.4126 21.8952 39.039C22.2668 38.8178 22.6007 38.6193 23.0134 38.3738C22.517 37.8714 22.0464 37.3941 21.538 36.8795V36.8804Z" fill="#007AFF"/>
<path d="M20.9587 42.1928C20.9595 43.9909 19.5147 45.4479 17.7343 45.4446C15.9596 45.4414 14.518 43.9747 14.5244 42.1766C14.5301 40.3996 15.9637 38.9548 17.7303 38.9434C19.5042 38.9321 20.9579 40.3947 20.9587 42.192V42.1928ZM17.7279 40.2513C16.6636 40.2561 15.7931 41.1418 15.8036 42.2082C15.8148 43.2819 16.6877 44.1433 17.7561 44.1352C18.8228 44.1271 19.6892 43.2462 19.6796 42.179C19.6699 41.107 18.7987 40.2464 17.7271 40.2513H17.7279Z" fill="#007AFF"/>
<path d="M18.3587 42.8282H17.123V41.5739H18.3587V42.8282Z" fill="#007AFF"/>
</svg>
