<svg width="60" height="60" viewBox="0 0 60 60" fill="none" xmlns="http://www.w3.org/2000/svg">
<rect x="0.5" y="0.5" width="59" height="59" rx="11.5" fill="white" stroke="#EBEBEB"/>
<mask id="path-2-inside-1_184_430" fill="white">
<path d="M10 35.166C10.455 34.3004 11.2378 33.7524 11.9422 33.1375C12.2365 32.8805 12.3544 32.6309 12.3524 32.2369C12.3367 29.018 12.343 25.799 12.344 22.579C12.3451 19.9526 14.1046 18.1568 16.6761 18.1536C17.2209 18.1536 17.7657 18.1536 18.324 18.1536C18.3574 17.6831 18.3501 17.2328 18.4263 16.7974C18.6862 15.3 19.9469 14.2061 21.4403 14.1849C22.8461 14.1657 24.2519 14.1774 25.6587 14.1795C26.4696 14.1806 26.932 14.6521 26.9528 15.4848C26.9549 15.5633 26.9591 15.6409 26.9654 15.7694C27.8535 15.7694 28.7343 15.7704 29.6152 15.7694C30.0817 15.7683 30.4522 15.9531 30.6922 16.3641C31.1545 17.1553 30.6087 18.1292 29.683 18.1515C28.9149 18.1695 28.1468 18.1557 27.3786 18.1557C27.2513 18.1557 27.124 18.1557 26.9528 18.1557V20.541C27.3359 20.541 27.7074 20.541 28.0789 20.541C28.5861 20.541 29.0944 20.5378 29.6016 20.541C30.329 20.5474 30.8519 21.0433 30.8571 21.7241C30.8613 22.4069 30.3405 22.9178 29.6183 22.9231C28.7479 22.9295 27.8775 22.9252 26.981 22.9252C26.9706 23.0325 26.957 23.1196 26.9539 23.2066C26.932 24.0393 26.4707 24.5119 25.6619 24.514C24.3083 24.5172 22.9536 24.5204 21.6 24.514C19.734 24.5044 18.3752 23.1227 18.3606 21.2292C18.3585 21.0189 18.3606 20.8076 18.3606 20.6058C17.5674 20.6058 16.7836 20.5251 16.0249 20.6281C15.2485 20.7343 14.7005 21.4766 14.6964 22.2753C14.6828 25.1629 14.6901 28.0515 14.6911 30.9391C14.6911 30.9742 14.7089 31.0092 14.7183 31.0475C15.524 30.6333 16.3077 30.1947 17.1197 29.8187C20.5449 28.2321 24.1402 27.5078 27.8994 27.7903C30.496 27.9857 32.8932 28.8788 35.1642 30.1469C36.9749 31.1579 38.6301 32.3909 40.1715 33.7875C40.3385 33.9383 40.5556 34.0625 40.7706 34.122C42.5385 34.6116 44.3117 35.081 46.0827 35.56C48.5092 36.2163 49.9932 38.1768 49.9984 40.7341C50.0005 41.9798 50.0005 43.2245 49.9984 44.4702C49.9963 45.34 49.5267 45.8147 48.6657 45.8179C47.5208 45.8211 46.376 45.8179 45.2113 45.8179C45.157 45.9613 45.109 46.094 45.0579 46.2257C44.3941 47.9175 42.7911 49.0156 41.0065 48.9997C39.2521 48.9838 37.6658 47.857 37.0365 46.1673C36.9592 45.9602 36.9112 45.8105 36.6274 45.8105C32.1752 45.8222 27.723 45.8179 23.2709 45.819C23.2062 45.819 23.1425 45.8275 23.0768 45.8317C22.9724 46.0802 22.8879 46.333 22.7658 46.5635C21.8943 48.2096 20.5334 49.0751 18.6977 48.9785C16.8995 48.8839 15.6262 47.9143 14.9322 46.2194C14.7955 45.8859 14.6431 45.7999 14.3134 45.8094C13.4023 45.8328 12.4901 45.7861 11.5801 45.8275C10.8537 45.8604 10.3183 45.6289 10.0021 44.946V35.1681L10 35.166ZM12.344 43.4305C13.0506 43.4305 13.7007 43.4146 14.3499 43.438C14.6494 43.4486 14.7986 43.3721 14.9134 43.0631C15.5563 41.3288 17.1489 40.2371 18.9628 40.2487C20.739 40.2604 22.3191 41.3915 22.9547 43.1055C22.9943 43.2128 23.0382 43.319 23.0768 43.4167C23.1425 43.4231 23.1811 43.4295 23.2198 43.4295C27.6844 43.4295 32.1502 43.4284 36.6148 43.4369C36.857 43.4369 36.9415 43.3424 37.0208 43.1289C37.7712 41.0983 39.7541 39.9269 41.8048 40.3188C43.4047 40.6247 44.4849 41.5837 45.0944 43.1119C45.1434 43.2351 45.2697 43.4125 45.3647 43.4157C46.1151 43.4411 46.8665 43.4295 47.6544 43.4295C47.6544 42.5055 47.6555 41.6209 47.6544 40.7373C47.6513 39.2611 46.902 38.2543 45.4972 37.8666C43.9547 37.4408 42.4039 37.0457 40.8656 36.605C40.0432 36.3692 39.2177 36.2885 38.365 36.2917C33.4443 36.3076 28.5235 36.2768 23.6028 36.3087C21.1544 36.3246 19.1078 35.4739 17.439 33.6611C17.1562 33.3542 16.8703 33.0515 16.5885 32.752C15.1201 33.5889 13.826 34.5585 12.6341 35.6747C12.4254 35.8701 12.3357 36.0623 12.3377 36.3554C12.3513 38.5676 12.3451 40.7797 12.3451 42.9919C12.3451 43.1215 12.3451 43.2521 12.3451 43.4316L12.344 43.4305ZM18.8386 31.6826C20.0085 33.0887 21.4278 33.9138 23.249 33.9138C27.5561 33.9138 31.8632 33.9138 36.1692 33.9138C36.2757 33.9138 36.3821 33.8958 36.5313 33.883C31.0001 29.601 25.0576 29.1029 18.8386 31.6836V31.6826ZM24.6088 16.5669C23.5308 16.5669 22.5059 16.5553 21.4811 16.5723C21.0271 16.5797 20.7119 16.9259 20.7077 17.4006C20.6973 18.6963 20.6962 19.993 20.7077 21.2887C20.7119 21.7952 21.0479 22.117 21.5572 22.1255C22.246 22.1361 22.9348 22.1287 23.6236 22.1287C23.944 22.1287 24.2634 22.1287 24.6088 22.1287V16.5669ZM20.8684 44.6359C20.8737 43.5208 20.0137 42.6351 18.9231 42.6329C17.8367 42.6308 16.9558 43.5229 16.9579 44.6232C16.96 45.7043 17.8315 46.5996 18.8918 46.6112C19.9782 46.624 20.8632 45.7393 20.8684 44.6348V44.6359ZM41.0586 42.6329C39.9722 42.6319 39.0935 43.5261 39.0976 44.6263C39.1018 45.7096 39.9712 46.6017 41.0325 46.6123C42.1127 46.6229 43.004 45.7319 43.0144 44.6338C43.0238 43.5367 42.143 42.6351 41.0586 42.634V42.6329Z"/>
</mask>
<path d="M10 35.166C10.455 34.3004 11.2378 33.7524 11.9422 33.1375C12.2365 32.8805 12.3544 32.6309 12.3524 32.2369C12.3367 29.018 12.343 25.799 12.344 22.579C12.3451 19.9526 14.1046 18.1568 16.6761 18.1536C17.2209 18.1536 17.7657 18.1536 18.324 18.1536C18.3574 17.6831 18.3501 17.2328 18.4263 16.7974C18.6862 15.3 19.9469 14.2061 21.4403 14.1849C22.8461 14.1657 24.2519 14.1774 25.6587 14.1795C26.4696 14.1806 26.932 14.6521 26.9528 15.4848C26.9549 15.5633 26.9591 15.6409 26.9654 15.7694C27.8535 15.7694 28.7343 15.7704 29.6152 15.7694C30.0817 15.7683 30.4522 15.9531 30.6922 16.3641C31.1545 17.1553 30.6087 18.1292 29.683 18.1515C28.9149 18.1695 28.1468 18.1557 27.3786 18.1557C27.2513 18.1557 27.124 18.1557 26.9528 18.1557V20.541C27.3359 20.541 27.7074 20.541 28.0789 20.541C28.5861 20.541 29.0944 20.5378 29.6016 20.541C30.329 20.5474 30.8519 21.0433 30.8571 21.7241C30.8613 22.4069 30.3405 22.9178 29.6183 22.9231C28.7479 22.9295 27.8775 22.9252 26.981 22.9252C26.9706 23.0325 26.957 23.1196 26.9539 23.2066C26.932 24.0393 26.4707 24.5119 25.6619 24.514C24.3083 24.5172 22.9536 24.5204 21.6 24.514C19.734 24.5044 18.3752 23.1227 18.3606 21.2292C18.3585 21.0189 18.3606 20.8076 18.3606 20.6058C17.5674 20.6058 16.7836 20.5251 16.0249 20.6281C15.2485 20.7343 14.7005 21.4766 14.6964 22.2753C14.6828 25.1629 14.6901 28.0515 14.6911 30.9391C14.6911 30.9742 14.7089 31.0092 14.7183 31.0475C15.524 30.6333 16.3077 30.1947 17.1197 29.8187C20.5449 28.2321 24.1402 27.5078 27.8994 27.7903C30.496 27.9857 32.8932 28.8788 35.1642 30.1469C36.9749 31.1579 38.6301 32.3909 40.1715 33.7875C40.3385 33.9383 40.5556 34.0625 40.7706 34.122C42.5385 34.6116 44.3117 35.081 46.0827 35.56C48.5092 36.2163 49.9932 38.1768 49.9984 40.7341C50.0005 41.9798 50.0005 43.2245 49.9984 44.4702C49.9963 45.34 49.5267 45.8147 48.6657 45.8179C47.5208 45.8211 46.376 45.8179 45.2113 45.8179C45.157 45.9613 45.109 46.094 45.0579 46.2257C44.3941 47.9175 42.7911 49.0156 41.0065 48.9997C39.2521 48.9838 37.6658 47.857 37.0365 46.1673C36.9592 45.9602 36.9112 45.8105 36.6274 45.8105C32.1752 45.8222 27.723 45.8179 23.2709 45.819C23.2062 45.819 23.1425 45.8275 23.0768 45.8317C22.9724 46.0802 22.8879 46.333 22.7658 46.5635C21.8943 48.2096 20.5334 49.0751 18.6977 48.9785C16.8995 48.8839 15.6262 47.9143 14.9322 46.2194C14.7955 45.8859 14.6431 45.7999 14.3134 45.8094C13.4023 45.8328 12.4901 45.7861 11.5801 45.8275C10.8537 45.8604 10.3183 45.6289 10.0021 44.946V35.1681L10 35.166ZM12.344 43.4305C13.0506 43.4305 13.7007 43.4146 14.3499 43.438C14.6494 43.4486 14.7986 43.3721 14.9134 43.0631C15.5563 41.3288 17.1489 40.2371 18.9628 40.2487C20.739 40.2604 22.3191 41.3915 22.9547 43.1055C22.9943 43.2128 23.0382 43.319 23.0768 43.4167C23.1425 43.4231 23.1811 43.4295 23.2198 43.4295C27.6844 43.4295 32.1502 43.4284 36.6148 43.4369C36.857 43.4369 36.9415 43.3424 37.0208 43.1289C37.7712 41.0983 39.7541 39.9269 41.8048 40.3188C43.4047 40.6247 44.4849 41.5837 45.0944 43.1119C45.1434 43.2351 45.2697 43.4125 45.3647 43.4157C46.1151 43.4411 46.8665 43.4295 47.6544 43.4295C47.6544 42.5055 47.6555 41.6209 47.6544 40.7373C47.6513 39.2611 46.902 38.2543 45.4972 37.8666C43.9547 37.4408 42.4039 37.0457 40.8656 36.605C40.0432 36.3692 39.2177 36.2885 38.365 36.2917C33.4443 36.3076 28.5235 36.2768 23.6028 36.3087C21.1544 36.3246 19.1078 35.4739 17.439 33.6611C17.1562 33.3542 16.8703 33.0515 16.5885 32.752C15.1201 33.5889 13.826 34.5585 12.6341 35.6747C12.4254 35.8701 12.3357 36.0623 12.3377 36.3554C12.3513 38.5676 12.3451 40.7797 12.3451 42.9919C12.3451 43.1215 12.3451 43.2521 12.3451 43.4316L12.344 43.4305ZM18.8386 31.6826C20.0085 33.0887 21.4278 33.9138 23.249 33.9138C27.5561 33.9138 31.8632 33.9138 36.1692 33.9138C36.2757 33.9138 36.3821 33.8958 36.5313 33.883C31.0001 29.601 25.0576 29.1029 18.8386 31.6836V31.6826ZM24.6088 16.5669C23.5308 16.5669 22.5059 16.5553 21.4811 16.5723C21.0271 16.5797 20.7119 16.9259 20.7077 17.4006C20.6973 18.6963 20.6962 19.993 20.7077 21.2887C20.7119 21.7952 21.0479 22.117 21.5572 22.1255C22.246 22.1361 22.9348 22.1287 23.6236 22.1287C23.944 22.1287 24.2634 22.1287 24.6088 22.1287V16.5669ZM20.8684 44.6359C20.8737 43.5208 20.0137 42.6351 18.9231 42.6329C17.8367 42.6308 16.9558 43.5229 16.9579 44.6232C16.96 45.7043 17.8315 46.5996 18.8918 46.6112C19.9782 46.624 20.8632 45.7393 20.8684 44.6348V44.6359ZM41.0586 42.6329C39.9722 42.6319 39.0935 43.5261 39.0976 44.6263C39.1018 45.7096 39.9712 46.6017 41.0325 46.6123C42.1127 46.6229 43.004 45.7319 43.0144 44.6338C43.0238 43.5367 42.143 42.6351 41.0586 42.634V42.6329Z" fill="#007AFF" stroke="white" mask="url(#path-2-inside-1_184_430)"/>
<path d="M41.7926 13.1341C45.1625 13.133 47.9036 15.924 47.9048 19.3418L41.7926 13.1341ZM41.7926 13.1341C38.4234 13.1352 35.6868 15.9298 35.6879 19.3495M41.7926 13.1341L35.6879 19.3495M35.6879 19.3495C35.6889 22.7662 38.4321 25.5606 41.8001 25.5584M35.6879 19.3495L41.8001 25.5584M41.8001 25.5584C45.1692 25.5562 47.9069 22.7606 47.9048 19.3419L41.8001 25.5584ZM41.8141 11.2499C46.1867 11.2581 49.7518 14.8918 49.7477 19.3556C49.7437 23.8313 46.1495 27.4611 41.7571 27.4436C37.3889 27.4262 33.8306 23.7822 33.8428 19.3182C33.855 14.8603 37.438 11.2417 41.8141 11.2499Z" fill="#007AFF" stroke="white" stroke-width="0.5"/>
<path d="M28.697 38.9836L28.6968 38.9836C28.2554 39.0148 27.9408 39.4279 27.9717 39.9568L28.697 38.9836ZM28.697 38.9836C29.5617 38.9218 30.4369 38.9218 31.3016 38.9836C31.743 39.0156 32.0575 39.4305 32.024 39.9588L32.0239 39.9592M28.697 38.9836L32.0239 39.9592M32.0239 39.9592C31.9944 40.4344 31.6285 40.7967 31.1364 40.8145L32.0239 39.9592ZM29.6126 40.8188C29.7324 40.8176 29.8536 40.8164 29.9775 40.8164C30.105 40.8164 30.2301 40.8176 30.3537 40.8188C30.6176 40.8213 30.8751 40.8237 31.1363 40.8145L29.6126 40.8188ZM29.6126 40.8188C29.3575 40.8213 29.1092 40.8237 28.8575 40.8145M29.6126 40.8188L28.8575 40.8145M28.8575 40.8145C28.3675 40.7959 27.9996 40.4305 27.9717 39.9569L28.8575 40.8145Z" fill="#007AFF" stroke="white" stroke-width="0.5"/>
<path d="M41.1003 19.8549L40.9222 19.6546C40.839 19.5611 40.7619 19.4719 40.6877 19.3861C40.5308 19.2048 40.3873 19.0389 40.2288 18.8804L40.2287 18.8803C39.797 18.4481 39.2356 18.4524 38.874 18.8187L38.8736 18.8191C38.5055 19.1905 38.4997 19.7636 38.9257 20.2087C39.4243 20.7287 39.9288 21.2432 40.4405 21.7491L40.4406 21.7492C40.6711 21.9774 40.9144 22.0774 41.1395 22.0795C41.3636 22.0816 41.6025 21.9868 41.8267 21.7628L41.8267 21.7627C42.7366 20.8538 43.6422 19.9429 44.5211 19.0082L41.1003 19.8549ZM41.1003 19.8549L41.2877 19.6633M41.1003 19.8549L41.2877 19.6633M41.2877 19.6633C41.4825 19.4642 41.6722 19.2694 41.8587 19.0781C42.3313 18.593 42.7825 18.1298 43.2403 17.6731C43.4103 17.5038 43.5884 17.4126 43.7625 17.3821C43.9362 17.3516 44.1227 17.3785 44.3155 17.4731L44.3156 17.4731M41.2877 19.6633L44.3156 17.4731M44.3156 17.4731C44.6703 17.6472 44.8795 18.0054 44.816 18.3721M44.3156 17.4731L44.816 18.3721M44.816 18.3721C44.7753 18.6067 44.6638 18.8563 44.5212 19.0082L44.816 18.3721Z" fill="#007AFF" stroke="white" stroke-width="0.5"/>
</svg>
