<svg width="60" height="60" viewBox="0 0 60 60" fill="none" xmlns="http://www.w3.org/2000/svg">
<rect x="0.5" y="0.5" width="59" height="59" rx="11.5" fill="white" stroke="#EBEBEB"/>
<mask id="path-2-inside-1_184_412" fill="white">
<path d="M25.093 39.742C24.4987 40.339 23.9132 40.9038 23.3629 41.5019C23.2681 41.6051 23.2913 41.8581 23.3221 42.0312C23.6849 44.0873 23.2494 45.9537 21.9151 47.5493C20.1486 49.662 17.854 50.421 15.2031 49.7785C12.5016 49.1239 10.7682 47.344 10.1683 44.6232C9.19797 40.2258 12.5468 36.3033 17.0292 36.4842C17.3037 36.4953 17.5783 36.5352 17.8496 36.5796C18.3733 36.6661 18.3722 36.6717 18.7328 36.27C18.5354 36.1258 18.3281 35.9959 18.1462 35.8361C17.2376 35.045 17.0457 33.7578 17.6797 32.7558C18.3149 31.7516 19.6116 31.3599 20.6934 31.8704C21.227 32.1222 21.7376 32.4252 22.2393 32.6948C22.6054 32.3386 22.9582 31.9957 23.3442 31.6207C23.1512 31.5108 22.9748 31.4154 22.8028 31.3111C21.6439 30.6065 21.2425 29.2139 21.8666 28.0766C22.4995 26.9226 23.9198 26.502 25.1195 27.1245C25.7061 27.4285 26.2795 27.7581 26.8198 28.0555C27.6755 27.1989 28.5113 26.3611 29.3714 25.5011C29.3097 25.4334 29.2093 25.3247 29.1101 25.2137C27.5222 23.4528 27.552 20.9306 29.1961 19.2118C29.9878 18.384 30.8038 17.5773 31.6142 16.7673C32.0619 16.3201 32.4931 16.3224 32.9452 16.7695C33.8075 17.6239 34.6653 18.4839 35.5949 19.4104C35.9213 19.0609 36.2686 18.728 36.5586 18.3507C36.6502 18.2309 36.6149 17.989 36.5928 17.8081C36.2973 15.3636 37.0096 13.2687 38.8798 11.6719C40.8922 9.95313 43.2265 9.55477 45.6877 10.4991C48.1213 11.4334 49.5768 13.2753 49.9319 15.8741C50.5836 20.6377 46.4607 24.4403 41.7875 23.4228C41.4953 23.3596 41.3299 23.4239 41.1469 23.6248C40.9352 23.8578 40.697 24.0653 40.4345 24.3172C41.3057 25.1827 42.1404 26.006 42.9685 26.836C43.5595 27.4285 43.5562 27.7836 42.9663 28.3773C42.265 29.083 41.5648 29.7876 40.8613 30.4911C38.9437 32.4107 36.4759 32.464 34.4922 30.6287C34.4437 30.5832 34.3908 30.5421 34.3632 30.5188C34.0082 30.8861 33.6663 31.2401 33.3046 31.614C33.4447 31.6961 33.6079 31.7905 33.77 31.8859C34.93 32.565 35.3501 33.9686 34.7348 35.1104C34.1041 36.2822 32.7081 36.715 31.4996 36.0969C30.9008 35.7906 30.3164 35.4533 29.7507 35.1437C29.3846 35.5166 29.0406 35.8672 28.6778 36.2367C28.9347 36.3821 29.2115 36.533 29.4817 36.6939C30.6693 37.3974 31.0894 38.8099 30.4509 39.9462C29.7904 41.1224 28.3889 41.5241 27.1661 40.8749C26.4736 40.5088 25.7921 40.1226 25.0941 39.7387L25.093 39.742ZM32.3608 18.4084C31.6021 19.1386 30.8291 19.7921 30.1664 20.5433C29.2644 21.5664 29.3185 23.1143 30.2734 24.0975C32.0719 25.9483 33.8946 27.777 35.7349 29.5856C36.6634 30.4978 38.1961 30.6187 39.1819 29.7798C39.9714 29.1074 40.611 28.2563 41.3696 27.4263C38.4189 24.4725 35.3689 21.4211 32.3608 18.4095V18.4084ZM36.713 20.4612C37.6161 21.3656 38.4795 22.2311 39.3947 23.1476C39.7388 22.7848 40.117 22.4031 40.4753 22.0036C40.7984 21.643 41.1535 21.5653 41.6254 21.7007C42.1227 21.8438 42.6487 21.9592 43.1626 21.9614C45.2786 21.9714 46.9006 21.0427 47.8511 19.143C48.8049 17.2345 48.6351 15.3348 47.323 13.6437C46.0229 11.9671 44.2454 11.3413 42.1801 11.7685C39.3043 12.3621 37.5742 15.1783 38.2667 18.06C38.388 18.5649 38.3064 18.9388 37.9215 19.2828C37.5003 19.6601 37.1111 20.0718 36.7152 20.4612H36.713ZM20.1927 37.0412C19.8884 37.3585 19.5962 37.6337 19.3371 37.9389C18.9798 38.3594 18.5839 38.4404 18.0491 38.2862C14.5051 37.2587 11.1574 40.1648 11.6228 43.8454C11.9999 46.8325 14.8778 48.8797 17.8396 48.2683C20.7198 47.6736 22.4543 44.722 21.6185 41.8103C21.484 41.3432 21.5545 40.9881 21.9096 40.6519C22.4896 40.1026 23.0443 39.5245 23.6375 38.932C22.4797 38.2962 21.3594 37.6814 20.1938 37.0423L20.1927 37.0412ZM32.5008 34.7543C33.0863 34.7609 33.4337 34.3881 33.4017 33.9032C33.3763 33.5181 33.1172 33.3295 32.8162 33.1642C30.0518 31.6462 27.2885 30.1249 24.5229 28.6059C23.9749 28.304 23.5096 28.3928 23.2681 28.8355C23.0398 29.2528 23.2141 29.7088 23.7334 29.9951C26.5199 31.5319 29.3086 33.0643 32.0994 34.5934C32.2527 34.6777 32.4258 34.7254 32.4997 34.7543H32.5008ZM29.142 38.8255C29.1365 38.4005 28.9028 38.1786 28.5775 37.9999C26.6302 36.9369 24.6872 35.8661 22.7443 34.7964C21.8754 34.3182 21.012 33.8288 20.1365 33.3628C19.605 33.0798 19.0294 33.3206 18.918 33.8433C18.832 34.2494 18.9996 34.5567 19.4573 34.8086C21.0628 35.6919 22.6693 36.574 24.2759 37.4562C25.4834 38.1197 26.6875 38.79 27.9015 39.4424C28.4904 39.7586 29.1277 39.4158 29.1432 38.8255H29.142ZM30.5777 26.7606C29.8621 27.4851 29.1487 28.2075 28.4341 28.931C29.5137 29.5246 30.6329 30.1405 31.6936 30.723C32.1954 30.2259 32.6629 29.761 33.1084 29.3193C32.2648 28.4671 31.4047 27.5972 30.5777 26.7606ZM23.7467 33.5237C24.9045 34.1595 26.0226 34.7742 27.0558 35.3424C27.4494 34.9584 27.8001 34.6156 28.1629 34.2616C27.6292 33.9664 27.0778 33.6591 26.5243 33.355C25.9597 33.0443 25.3952 32.737 24.8471 32.4374C24.4799 32.8002 24.1381 33.1375 23.7467 33.5237Z"/>
</mask>
<path d="M25.093 39.742C24.4987 40.339 23.9132 40.9038 23.3629 41.5019C23.2681 41.6051 23.2913 41.8581 23.3221 42.0312C23.6849 44.0873 23.2494 45.9537 21.9151 47.5493C20.1486 49.662 17.854 50.421 15.2031 49.7785C12.5016 49.1239 10.7682 47.344 10.1683 44.6232C9.19797 40.2258 12.5468 36.3033 17.0292 36.4842C17.3037 36.4953 17.5783 36.5352 17.8496 36.5796C18.3733 36.6661 18.3722 36.6717 18.7328 36.27C18.5354 36.1258 18.3281 35.9959 18.1462 35.8361C17.2376 35.045 17.0457 33.7578 17.6797 32.7558C18.3149 31.7516 19.6116 31.3599 20.6934 31.8704C21.227 32.1222 21.7376 32.4252 22.2393 32.6948C22.6054 32.3386 22.9582 31.9957 23.3442 31.6207C23.1512 31.5108 22.9748 31.4154 22.8028 31.3111C21.6439 30.6065 21.2425 29.2139 21.8666 28.0766C22.4995 26.9226 23.9198 26.502 25.1195 27.1245C25.7061 27.4285 26.2795 27.7581 26.8198 28.0555C27.6755 27.1989 28.5113 26.3611 29.3714 25.5011C29.3097 25.4334 29.2093 25.3247 29.1101 25.2137C27.5222 23.4528 27.552 20.9306 29.1961 19.2118C29.9878 18.384 30.8038 17.5773 31.6142 16.7673C32.0619 16.3201 32.4931 16.3224 32.9452 16.7695C33.8075 17.6239 34.6653 18.4839 35.5949 19.4104C35.9213 19.0609 36.2686 18.728 36.5586 18.3507C36.6502 18.2309 36.6149 17.989 36.5928 17.8081C36.2973 15.3636 37.0096 13.2687 38.8798 11.6719C40.8922 9.95313 43.2265 9.55477 45.6877 10.4991C48.1213 11.4334 49.5768 13.2753 49.9319 15.8741C50.5836 20.6377 46.4607 24.4403 41.7875 23.4228C41.4953 23.3596 41.3299 23.4239 41.1469 23.6248C40.9352 23.8578 40.697 24.0653 40.4345 24.3172C41.3057 25.1827 42.1404 26.006 42.9685 26.836C43.5595 27.4285 43.5562 27.7836 42.9663 28.3773C42.265 29.083 41.5648 29.7876 40.8613 30.4911C38.9437 32.4107 36.4759 32.464 34.4922 30.6287C34.4437 30.5832 34.3908 30.5421 34.3632 30.5188C34.0082 30.8861 33.6663 31.2401 33.3046 31.614C33.4447 31.6961 33.6079 31.7905 33.77 31.8859C34.93 32.565 35.3501 33.9686 34.7348 35.1104C34.1041 36.2822 32.7081 36.715 31.4996 36.0969C30.9008 35.7906 30.3164 35.4533 29.7507 35.1437C29.3846 35.5166 29.0406 35.8672 28.6778 36.2367C28.9347 36.3821 29.2115 36.533 29.4817 36.6939C30.6693 37.3974 31.0894 38.8099 30.4509 39.9462C29.7904 41.1224 28.3889 41.5241 27.1661 40.8749C26.4736 40.5088 25.7921 40.1226 25.0941 39.7387L25.093 39.742ZM32.3608 18.4084C31.6021 19.1386 30.8291 19.7921 30.1664 20.5433C29.2644 21.5664 29.3185 23.1143 30.2734 24.0975C32.0719 25.9483 33.8946 27.777 35.7349 29.5856C36.6634 30.4978 38.1961 30.6187 39.1819 29.7798C39.9714 29.1074 40.611 28.2563 41.3696 27.4263C38.4189 24.4725 35.3689 21.4211 32.3608 18.4095V18.4084ZM36.713 20.4612C37.6161 21.3656 38.4795 22.2311 39.3947 23.1476C39.7388 22.7848 40.117 22.4031 40.4753 22.0036C40.7984 21.643 41.1535 21.5653 41.6254 21.7007C42.1227 21.8438 42.6487 21.9592 43.1626 21.9614C45.2786 21.9714 46.9006 21.0427 47.8511 19.143C48.8049 17.2345 48.6351 15.3348 47.323 13.6437C46.0229 11.9671 44.2454 11.3413 42.1801 11.7685C39.3043 12.3621 37.5742 15.1783 38.2667 18.06C38.388 18.5649 38.3064 18.9388 37.9215 19.2828C37.5003 19.6601 37.1111 20.0718 36.7152 20.4612H36.713ZM20.1927 37.0412C19.8884 37.3585 19.5962 37.6337 19.3371 37.9389C18.9798 38.3594 18.5839 38.4404 18.0491 38.2862C14.5051 37.2587 11.1574 40.1648 11.6228 43.8454C11.9999 46.8325 14.8778 48.8797 17.8396 48.2683C20.7198 47.6736 22.4543 44.722 21.6185 41.8103C21.484 41.3432 21.5545 40.9881 21.9096 40.6519C22.4896 40.1026 23.0443 39.5245 23.6375 38.932C22.4797 38.2962 21.3594 37.6814 20.1938 37.0423L20.1927 37.0412ZM32.5008 34.7543C33.0863 34.7609 33.4337 34.3881 33.4017 33.9032C33.3763 33.5181 33.1172 33.3295 32.8162 33.1642C30.0518 31.6462 27.2885 30.1249 24.5229 28.6059C23.9749 28.304 23.5096 28.3928 23.2681 28.8355C23.0398 29.2528 23.2141 29.7088 23.7334 29.9951C26.5199 31.5319 29.3086 33.0643 32.0994 34.5934C32.2527 34.6777 32.4258 34.7254 32.4997 34.7543H32.5008ZM29.142 38.8255C29.1365 38.4005 28.9028 38.1786 28.5775 37.9999C26.6302 36.9369 24.6872 35.8661 22.7443 34.7964C21.8754 34.3182 21.012 33.8288 20.1365 33.3628C19.605 33.0798 19.0294 33.3206 18.918 33.8433C18.832 34.2494 18.9996 34.5567 19.4573 34.8086C21.0628 35.6919 22.6693 36.574 24.2759 37.4562C25.4834 38.1197 26.6875 38.79 27.9015 39.4424C28.4904 39.7586 29.1277 39.4158 29.1432 38.8255H29.142ZM30.5777 26.7606C29.8621 27.4851 29.1487 28.2075 28.4341 28.931C29.5137 29.5246 30.6329 30.1405 31.6936 30.723C32.1954 30.2259 32.6629 29.761 33.1084 29.3193C32.2648 28.4671 31.4047 27.5972 30.5777 26.7606ZM23.7467 33.5237C24.9045 34.1595 26.0226 34.7742 27.0558 35.3424C27.4494 34.9584 27.8001 34.6156 28.1629 34.2616C27.6292 33.9664 27.0778 33.6591 26.5243 33.355C25.9597 33.0443 25.3952 32.737 24.8471 32.4374C24.4799 32.8002 24.1381 33.1375 23.7467 33.5237Z" fill="#007AFF" stroke="white" stroke-width="0.4" mask="url(#path-2-inside-1_184_412)"/>
<path d="M41.4773 16.8261C41.487 17.7337 42.1695 18.4687 43.0521 18.5734M41.4773 16.8261L41.5773 16.825M41.4773 16.8261C41.4773 16.8261 41.4773 16.8262 41.4773 16.8262L41.5773 16.825M41.4773 16.8261C41.4657 15.8143 42.2592 15.0104 43.2682 15.0151L43.2682 15.0151C44.2524 15.0198 45.05 15.814 45.057 16.7966L45.057 16.7967C45.0629 17.7777 44.2637 18.5825 43.2792 18.5872L43.0371 18.5884L43.0521 18.5734M43.0521 18.5734C43.1265 18.5822 43.2023 18.5865 43.2792 18.5861C43.2796 18.5861 43.28 18.5861 43.2805 18.5861L43.2799 18.4884M43.0521 18.5734L43.2799 18.4884M41.5773 16.825C41.5663 15.8685 42.315 15.1107 43.2677 15.1151C44.1973 15.1195 44.9504 15.8697 44.957 16.7973C44.9622 17.673 44.2871 18.4007 43.4269 18.4801L43.3508 18.5567L43.3497 18.5578L43.2799 18.4884M41.5773 16.825L43.2799 18.4884M46.4438 16.8139C46.4438 18.5569 45.0278 19.9888 43.2912 20.0017C41.5433 20.0147 40.0993 18.5764 40.0961 16.8171C40.0929 15.0396 41.5077 13.6117 43.2677 13.6128C45.0334 13.6139 46.4438 15.0343 46.4438 16.8128V16.8139Z" fill="#007AFF" stroke="white" stroke-width="0.2"/>
<path d="M16.6303 41.2043L16.6303 41.2043C17.7887 41.216 18.7119 42.1592 18.7119 43.3272V43.3283C18.7119 44.5088 17.7559 45.4706 16.5885 45.4578L16.5884 45.4578C15.4365 45.4449 14.5082 44.4938 14.507 43.3296L16.6303 41.2043ZM16.6303 41.2043C15.4578 41.1927 14.5047 42.1473 14.507 43.3295L16.6303 41.2043ZM16.6104 39.8131C18.5484 39.8153 20.1095 41.3879 20.103 43.3313C20.0966 45.2751 18.5265 46.8467 16.5963 46.8434C14.6684 46.8402 13.1016 45.2589 13.1059 43.3174C13.1102 41.3694 14.67 39.811 16.6104 39.8131Z" fill="#007AFF" stroke="white" stroke-width="0.2"/>
</svg>
