<svg width="60" height="60" viewBox="0 0 60 60" fill="none" xmlns="http://www.w3.org/2000/svg">
<rect x="0.5" y="0.5" width="59" height="59" rx="11.5" fill="white" stroke="#EBEBEB"/>
<path d="M10 29.975C9.98927 18.9927 18.9652 10.0084 29.9559 10C41.0169 9.99166 50.0048 18.9485 50 29.9761C49.9952 41.0419 41.0181 50.0072 29.9511 50C18.9426 49.994 10.0107 41.0288 10 29.975ZM48.571 30.0644C48.5949 19.7871 40.2738 11.4445 29.9821 11.429C19.805 11.4135 11.4576 19.7298 11.429 29.9153C11.4004 40.1437 19.6881 48.5543 29.8139 48.5722C40.1998 48.5901 48.5471 40.3549 48.571 30.0656V30.0644Z" fill="#007AFF"/>
<path d="M27.5393 13.0345C28.1273 13.0285 28.4422 13.3816 28.3802 13.9017C28.1106 16.1442 27.8363 18.3867 27.5643 20.6292C27.3937 22.0307 27.222 23.4323 27.055 24.8339C26.9786 25.478 26.6625 25.732 26.0232 25.6068C22.3934 24.8995 18.7637 24.1873 15.1363 23.4717C14.6186 23.3691 14.3932 22.8585 14.6485 22.3623C16.8146 18.166 20.1044 15.2579 24.5918 13.7466C25.3767 13.4818 26.1985 13.3243 27.0049 13.1251C27.2053 13.075 27.4128 13.0536 27.5405 13.0321L27.5393 13.0345ZM25.7047 24.0836C26.0828 20.9214 26.4574 17.7938 26.8343 14.6484C23.0614 15.0706 17.3383 19.2598 16.4091 22.255C19.4949 22.8621 22.5771 23.4681 25.7035 24.0836H25.7047Z" fill="#007AFF"/>
<path d="M47.159 29.6828C47.079 34.7713 45.3829 38.8436 42.0239 42.2181C41.5754 42.669 41.0637 42.5891 40.7511 42.0284C38.9953 38.8758 37.2395 35.7232 35.4848 32.5706C35.0674 31.8215 35.1699 31.5161 35.956 31.1511C39.2279 29.6327 42.4998 28.1154 45.7717 26.5969C46.3705 26.319 46.856 26.5611 46.9299 27.216C47.0349 28.1452 47.1029 29.0792 47.1578 29.6828H47.159ZM36.9496 32.2616C38.5039 35.0457 40.0354 37.7903 41.6052 40.603C44.7375 37.0401 46.0425 32.9702 45.6286 28.249C42.7086 29.5993 39.8553 30.9173 36.9496 32.2616Z" fill="#007AFF"/>
<path d="M32.4634 13.0357C34.1465 13.2874 35.8081 13.7705 37.3862 14.5315C40.9276 16.2384 43.565 18.8674 45.3506 22.3611C45.625 22.8979 45.3745 23.3679 44.7792 23.4848C41.2354 24.1778 37.6927 24.872 34.15 25.5698C33.2888 25.7392 33.0383 25.5579 32.9334 24.7015C32.4968 21.1158 32.0566 17.5302 31.6153 13.9446C31.5449 13.3721 31.8551 13.013 32.4622 13.0357H32.4634ZM33.1588 14.5983C33.5429 17.7974 33.9162 20.919 34.2968 24.0883C37.4315 23.4693 40.5245 22.8597 43.6783 22.2371C41.2366 18.1696 37.7857 15.6539 33.1588 14.5983Z" fill="#007AFF"/>
<path d="M12.841 29.6385C12.8959 29.0457 12.9639 28.1272 13.0689 27.2123C13.144 26.5599 13.6307 26.3189 14.2295 26.5968C17.5014 28.1141 20.7745 29.6302 24.0464 31.1474C24.8277 31.5101 24.9291 31.8238 24.5128 32.5717C22.7581 35.7243 21.0023 38.8769 19.2465 42.0295C18.9351 42.589 18.4222 42.6653 17.9737 42.2144C14.6028 38.8268 12.9066 34.7402 12.8398 29.6373L12.841 29.6385ZM23.0516 32.2603C20.1638 30.9244 17.2998 29.598 14.369 28.2417C13.9563 32.9701 15.2601 37.0423 18.396 40.6017C19.9669 37.7867 21.4997 35.0408 23.0516 32.2603Z" fill="#007AFF"/>
<path d="M29.9795 47.1456C27.1954 47.1372 24.5701 46.4752 22.0902 45.2192C21.5391 44.9401 21.4437 44.4355 21.8624 43.9834C24.3577 41.2888 26.8555 38.5966 29.3544 35.9068C29.7958 35.4321 30.2037 35.4297 30.6427 35.9033C33.1428 38.5943 35.6394 41.2865 38.1348 43.981C38.5547 44.4355 38.4628 44.9377 37.9117 45.218C35.4199 46.4871 32.7778 47.142 29.9783 47.1468L29.9795 47.1456ZM23.4977 44.321C27.8694 46.1734 32.1456 46.177 36.5006 44.3174C34.3058 41.9509 32.1683 39.6451 30.001 37.3096C27.8348 39.6451 25.6961 41.9509 23.4977 44.321Z" fill="#007AFF"/>
<path d="M29.9933 32.141C28.8064 32.1327 27.8462 31.1558 27.8605 29.9701C27.8748 28.8071 28.841 27.8576 30.0088 27.8612C31.1921 27.8648 32.1523 28.8417 32.1415 30.0321C32.1308 31.1916 31.1551 32.1494 29.9933 32.1422V32.141ZM30.7113 30.0154C30.7185 29.6326 30.4096 29.3045 30.0255 29.2902C29.6259 29.2747 29.2847 29.6075 29.2895 30.0083C29.2943 30.3924 29.614 30.7097 29.9968 30.7121C30.3797 30.7144 30.7042 30.3983 30.7113 30.0154Z" fill="#007AFF"/>
<path d="M30.7107 25.0068C30.7072 25.3933 30.3791 25.7153 29.9927 25.7106C29.605 25.7058 29.2853 25.3802 29.2901 24.9925C29.2949 24.6036 29.6193 24.2851 30.007 24.2887C30.3946 24.2923 30.7143 24.6191 30.7107 25.0068Z" fill="#007AFF"/>
<path d="M24.5431 28.4409C24.5502 28.0413 24.858 27.7467 25.2612 27.7551C25.656 27.7622 25.9697 28.0843 25.959 28.4707C25.9494 28.8513 25.6083 29.1781 25.2302 29.1697C24.8425 29.1614 24.5359 28.8357 24.5431 28.4409Z" fill="#007AFF"/>
<path d="M34.751 29.1686C34.3716 29.1662 34.0388 28.831 34.04 28.4517C34.0412 28.064 34.3609 27.7527 34.7569 27.7539C35.1589 27.7551 35.4583 28.0569 35.4571 28.4589C35.4547 28.8537 35.1386 29.171 34.751 29.1686Z" fill="#007AFF"/>
<path d="M27.7683 34.046C27.7683 34.4409 27.4582 34.7462 27.0586 34.745C26.6626 34.745 26.3465 34.4313 26.3477 34.0425C26.3477 33.662 26.6816 33.3304 27.0622 33.3315C27.4474 33.3315 27.7695 33.6584 27.7683 34.0449V34.046Z" fill="#007AFF"/>
<path d="M32.9568 34.745C32.5561 34.7534 32.24 34.4564 32.2316 34.0616C32.2233 33.6739 32.5358 33.3435 32.9223 33.3316C33.3004 33.3208 33.6427 33.6453 33.6523 34.027C33.663 34.4158 33.3517 34.7367 32.9568 34.745Z" fill="#007AFF"/>
</svg>
