<svg width="40" height="40" viewBox="0 0 40 40" fill="none" xmlns="http://www.w3.org/2000/svg">
<path d="M17.0289 39.9H19.2807C19.504 39.8686 19.7269 39.8395 19.9492 39.8105C20.4442 39.746 20.9365 39.6818 21.426 39.5927L21.4261 39.5927C24.96 38.9517 28.0258 37.3768 30.6188 34.9016C33.1613 32.4748 34.8831 29.5546 35.7023 26.1331L35.7996 26.1564L35.7023 26.1331C35.8832 25.3781 36.0019 24.6107 36.1241 23.8211C36.1805 23.4563 36.2377 23.0867 36.3021 22.7114L36.3164 22.6283H36.4007C36.6194 22.6283 36.8443 22.627 37.0734 22.6257C37.6288 22.6226 38.2094 22.6193 38.7885 22.6336C39.0596 22.6403 39.2869 22.6002 39.471 22.5009C39.6486 22.405 39.7942 22.2497 39.9 22.0088V20.5538C39.8929 20.5171 39.8849 20.4814 39.8764 20.444C39.8715 20.4224 39.8665 20.4002 39.8615 20.3768C39.8476 20.3124 39.8346 20.2437 39.8299 20.173L39.8299 20.1728C39.7185 18.4713 39.3972 16.8082 38.8627 15.1929C37.1912 10.1418 34.1054 6.18294 29.5935 3.35747C26.1522 1.20297 22.3792 0.144657 18.3189 0.100107L18.32 0.000112884L18.3189 0.100107C17.9991 0.0965729 17.7677 0.180523 17.614 0.330427C17.4602 0.48051 17.3697 0.710998 17.3616 1.03061C17.3616 1.03063 17.3616 1.03064 17.3616 1.03066L17.2616 1.02813C17.2542 1.32539 17.256 1.62316 17.2578 1.92074C17.2587 2.05293 17.2595 2.18509 17.2595 2.31714L17.0289 39.9ZM17.0289 39.9C16.8125 39.8691 16.5968 39.8405 16.3818 39.8119C15.9062 39.7488 15.4337 39.6861 14.9635 39.6002C10.6414 38.8097 7.07554 36.7074 4.26157 33.3501L4.18493 33.4143L17.0289 39.9ZM34.5534 22.7283V22.6283L31.0673 22.4257L31.1024 22.3321C31.1023 22.3321 31.1023 22.3321 31.1023 22.3321C29.8319 21.8563 29.242 20.8358 28.9241 19.5269C28.3758 17.2683 27.3902 15.4324 25.9739 14.0182C24.5576 12.6041 22.7154 11.6166 20.4612 11.0473C19.9276 10.9123 19.3854 10.746 18.9392 10.4651L18.8859 10.5498L18.9392 10.4651C17.8352 9.77044 17.3773 8.69203 17.3616 7.39847C17.3565 6.97435 17.3579 6.55023 17.3592 6.12508C17.3599 5.92843 17.3605 5.73155 17.3605 5.53435V5.43029L17.2566 5.43443C9.38515 5.74745 1.75958 12.3304 1.71133 21.7903C1.66414 31.0534 9.33679 38.4659 18.4436 38.2698C28.0258 38.064 34.3099 30.2389 34.5534 22.7326L34.5534 22.7326V22.7294V22.7283ZM38.1209 21.012H38.2241L38.2209 20.9089C37.8931 10.2063 28.6607 1.89704 19.0778 1.79635L18.9767 1.79529V1.89635V1.89709V1.89783V1.89858V1.89932V1.90006V1.9008V1.90155V1.90229V1.90303V1.90378V1.90452V1.90526V1.90601V1.90675V1.90749V1.90823V1.90898V1.90972V1.91046V1.91121V1.91195V1.91269V1.91344V1.91418V1.91492V1.91567V1.91641V1.91715V1.9179V1.91864V1.91938V1.92013V1.92087V1.92162V1.92236V1.9231V1.92385V1.92459V1.92533V1.92608V1.92682V1.92756V1.92831V1.92905V1.9298V1.93054V1.93128V1.93203V1.93277V1.93352V1.93426V1.935V1.93575V1.93649V1.93723V1.93798V1.93872V1.93947V1.94021V1.94096V1.9417V1.94244V1.94319V1.94393V1.94468V1.94542V1.94616V1.94691V1.94765V1.9484V1.94914V1.94989V1.95063V1.95137V1.95212V1.95286V1.95361V1.95435V1.9551V1.95584V1.95659V1.95733V1.95807V1.95882V1.95956V1.96031V1.96105V1.9618V1.96254V1.96329V1.96403V1.96478V1.96552V1.96626V1.96701V1.96775V1.9685V1.96924V1.96999V1.97073V1.97148V1.97222V1.97297V1.97371V1.97446V1.9752V1.97595V1.97669V1.97744V1.97818V1.97893V1.97967V1.98042V1.98116V1.98191V1.98265V1.9834V1.98414V1.98489V1.98563V1.98638V1.98712V1.98787V1.98861V1.98936V1.9901V1.99085V1.99159V1.99234V1.99308V1.99383V1.99457V1.99532V1.99606V1.99681V1.99755V1.9983V1.99904V1.99979V2.00053V2.00128V2.00202V2.00277V2.00352V2.00426V2.00501V2.00575V2.0065V2.00724V2.00799V2.00873V2.00948V2.01022V2.01097V2.01171V2.01246V2.01321V2.01395V2.0147V2.01544V2.01619V2.01693V2.01768V2.01842V2.01917V2.01991V2.02066V2.02141V2.02215V2.0229V2.02364V2.02439V2.02513V2.02588V2.02662V2.02737V2.02812V2.02886V2.02961V2.03035V2.0311V2.03184V2.03259V2.03334V2.03408V2.03483V2.03557V2.03632V2.03706V2.03781V2.03856V2.0393V2.04005V2.04079V2.04154V2.04228V2.04303V2.04378V2.04452V2.04527V2.04601V2.04676V2.0475V2.04825V2.049V2.04974V2.05049V2.05123V2.05198V2.05272V2.05347V2.05422V2.05496V2.05571V2.05645V2.0572V2.05795V2.05869V2.05944V2.06018V2.06093V2.06168V2.06242V2.06317V2.06391V2.06466V2.0654V2.06615V2.0669V2.06764V2.06839V2.06913V2.06988V2.07063V2.07137V2.07212V2.07286V2.07361V2.07436V2.0751V2.07585V2.07659V2.07734V2.07808V2.07883V2.07958V2.08032V2.08107V2.08181V2.08256V2.08331V2.08405V2.0848V2.08554V2.08629V2.08704V2.08778V2.08853V2.08927V2.09002V2.09077V2.09151V2.09226V2.093V2.09375V2.09449V2.09524V2.09599V2.09673V2.09748V2.09822V2.09897V2.09972V2.10046V2.10121V2.10195V2.1027V2.10345V2.10419V2.10494V2.10568V2.10643V2.10718V2.10792V2.10867V2.10941V2.11016V2.1109V2.11165V2.1124V2.11314V2.11389V2.11463V2.11538V2.11613V2.11687V2.11762V2.11836V2.11911V2.11985V2.1206V2.12135V2.12209V2.12284V2.12358V2.12433V2.12508V2.12582V2.12657V2.12731V2.12806V2.1288V2.12955V2.1303V2.13104V2.13179V2.13253V2.13328V2.13402V2.13477V2.13552V2.13626V2.13701V2.13775V2.1385V2.13924V2.13999V2.14074V2.14148V2.14223V2.14297V2.14372V2.14446V2.14521V2.14596V2.1467V2.14745V2.14819V2.14894V2.14968V2.15043V2.15117V2.15192V2.15267V2.15341V2.15416V2.1549V2.15565V2.15639V2.15714V2.15788V2.15863V2.15938V2.16012V2.16087V2.16161V2.16236V2.1631V2.16385V2.16459V2.16534V2.16608V2.16683V2.16757V2.16832V2.16907V2.16981V2.17056V2.1713V2.17205V2.17279V2.17354V2.17428V2.17503V2.17577V2.17652V2.17726V2.17801V2.17875V2.1795V2.18024V2.18099V2.18173V2.18248V2.18322V2.18397V2.18472V2.18546V2.18621V2.18695V2.1877V2.18844V2.18919V2.18993V2.19068V2.19142V2.19217V2.19291V2.19366V2.1944V2.19515V2.19589V2.19664V2.19738V2.19812V2.19887V2.19961V2.20036V2.2011V2.20185V2.20259V2.20334V2.20408V2.20483V2.20557V2.20632V2.20706V2.20781V2.20855V2.2093V2.21004V2.21079V2.21153V2.21227V2.21302V2.21376V2.21451V2.21525V2.216V2.21674V2.21749V2.21823V2.21898V2.21972V2.22046V2.22121V2.22195V2.2227V2.22344V2.22419V2.22493V2.22567V2.22642V2.22716V2.22791V2.22865V2.2294V2.23014V2.23088V2.23163V2.23237V2.23312V2.23386V2.2346V2.23535V2.23609V2.23684V2.23758V2.23832V2.23907V2.23981V2.24056V2.2413V2.24204V2.24279V2.24353V2.24428V2.24502V2.24576V2.24651V2.24725V2.24799V2.24874V2.24948V2.25022V2.25097V2.25171V2.25246V2.2532V2.25394V2.25469V2.25543V2.25617V2.25692V2.25766V2.2584V2.25915V2.25989V2.26063V2.26138V2.26212V2.26286V2.26361V2.26435V2.26509V2.26584V2.26658V2.26732V2.26807V2.26881V2.26955V2.2703V2.27104V2.27178V2.27252V2.27327V2.27401V2.27475V2.2755V2.27624V2.27698V2.27772C18.9767 2.82876 18.9766 3.37981 18.9765 3.93092C18.9762 5.03329 18.976 6.13587 18.9767 7.23889C18.9772 7.8857 19.1007 8.37039 19.3957 8.73242C19.69 9.09372 20.142 9.31675 20.7635 9.46972C23.3749 10.1127 25.4918 11.2488 27.1164 12.8724C28.741 14.4961 29.8782 16.6122 30.5225 19.2229C30.6761 19.845 30.8992 20.2976 31.2601 20.5923C31.6217 20.8877 32.1056 21.0114 32.7512 21.012C33.854 21.0134 34.9569 21.0129 36.0598 21.0124C36.6111 21.0122 37.1625 21.012 37.7138 21.012H37.7145H37.7153H37.716H37.7168H37.7175H37.7183H37.719H37.7197H37.7205H37.7212H37.722H37.7227H37.7235H37.7242H37.7249H37.7257H37.7264H37.7272H37.7279H37.7287H37.7294H37.7302H37.7309H37.7316H37.7324H37.7331H37.7339H37.7346H37.7354H37.7361H37.7369H37.7376H37.7383H37.7391H37.7398H37.7406H37.7413H37.7421H37.7428H37.7435H37.7443H37.745H37.7458H37.7465H37.7473H37.748H37.7488H37.7495H37.7503H37.751H37.7518H37.7525H37.7532H37.754H37.7547H37.7555H37.7562H37.757H37.7577H37.7585H37.7592H37.76H37.7607H37.7615H37.7622H37.7629H37.7637H37.7644H37.7652H37.7659H37.7667H37.7674H37.7682H37.7689H37.7697H37.7704H37.7712H37.7719H37.7727H37.7734H37.7742H37.7749H37.7757H37.7764H37.7772H37.7779H37.7787H37.7794H37.7802H37.7809H37.7816H37.7824H37.7831H37.7839H37.7846H37.7854H37.7861H37.7869H37.7876H37.7884H37.7892H37.7899H37.7906H37.7914H37.7922H37.7929H37.7937H37.7944H37.7952H37.7959H37.7967H37.7974H37.7982H37.7989H37.7997H37.8004H37.8012H37.8019H37.8027H37.8034H37.8042H37.8049H37.8057H37.8064H37.8072H37.808H37.8087H37.8095H37.8102H37.811H37.8117H37.8125H37.8132H37.814H37.8148H37.8155H37.8163H37.817H37.8178H37.8185H37.8193H37.82H37.8208H37.8216H37.8223H37.8231H37.8238H37.8246H37.8253H37.8261H37.8269H37.8276H37.8284H37.8291H37.8299H37.8307H37.8314H37.8322H37.8329H37.8337H37.8345H37.8352H37.836H37.8367H37.8375H37.8383H37.839H37.8398H37.8405H37.8413H37.8421H37.8428H37.8436H37.8444H37.8451H37.8459H37.8466H37.8474H37.8482H37.8489H37.8497H37.8505H37.8512H37.852H37.8528H37.8535H37.8543H37.855H37.8558H37.8566H37.8573H37.8581H37.8589H37.8596H37.8604H37.8612H37.8619H37.8627H37.8635H37.8642H37.865H37.8658H37.8666H37.8673H37.8681H37.8689H37.8696H37.8704H37.8712H37.8719H37.8727H37.8735H37.8743H37.875H37.8758H37.8766H37.8773H37.8781H37.8789H37.8797H37.8804H37.8812H37.882H37.8827H37.8835H37.8843H37.8851H37.8858H37.8866H37.8874H37.8882H37.8889H37.8897H37.8905H37.8913H37.8921H37.8928H37.8936H37.8944H37.8952H37.8959H37.8967H37.8975H37.8983H37.8991H37.8998H37.9006H37.9014H37.9022H37.903H37.9037H37.9045H37.9053H37.9061H37.9069H37.9076H37.9084H37.9092H37.91H37.9108H37.9116H37.9123H37.9131H37.9139H37.9147H37.9155H37.9163H37.917H37.9178H37.9186H37.9194H37.9202H37.921H37.9218H37.9226H37.9233H37.9241H37.9249H37.9257H37.9265H37.9273H37.9281H37.9289H37.9297H37.9304H37.9312H37.932H37.9328H37.9336H37.9344H37.9352H37.936H37.9368H37.9376H37.9384H37.9392H37.94H37.9408H37.9415H37.9423H37.9431H37.9439H37.9447H37.9455H37.9463H37.9471H37.9479H37.9487H37.9495H37.9503H37.9511H37.9519H37.9527H37.9535H37.9543H37.9551H37.9559H37.9567H37.9575H37.9583H37.9591H37.9599H37.9607H37.9615H37.9623H37.9631H37.9639H37.9647H37.9656H37.9664H37.9672H37.968H37.9688H37.9696H37.9704H37.9712H37.972H37.9728H37.9736H37.9744H37.9752H37.9761H37.9769H37.9777H37.9785H37.9793H37.9801H37.9809H37.9817H37.9825H37.9834H37.9842H37.985H37.9858H37.9866H37.9874H37.9882H37.9891H37.9899H37.9907H37.9915H37.9923H37.9931H37.994H37.9948H37.9956H37.9964H37.9972H37.9981H37.9989H37.9997H38.0005H38.0013H38.0022H38.003H38.0038H38.0046H38.0055H38.0063H38.0071H38.0079H38.0088H38.0096H38.0104H38.0112H38.0121H38.0129H38.0137H38.0145H38.0154H38.0162H38.017H38.0179H38.0187H38.0195H38.0204H38.0212H38.022H38.0229H38.0237H38.0245H38.0253H38.0262H38.027H38.0279H38.0287H38.0295H38.0304H38.0312H38.032H38.0329H38.0337H38.0345H38.0354H38.0362H38.0371H38.0379H38.0387H38.0396H38.0404H38.0413H38.0421H38.043H38.0438H38.0446H38.0455H38.0463H38.0472H38.048H38.0489H38.0497H38.0506H38.0514H38.0523H38.0531H38.054H38.0548H38.0557H38.0565H38.0574H38.0582H38.0591H38.0599H38.0608H38.0616H38.0625H38.0633H38.0642H38.065H38.0659H38.0667H38.0676H38.0685H38.0693H38.0702H38.071H38.0719H38.0727H38.0736H38.0745H38.0753H38.0762H38.077H38.0779H38.0788H38.0796H38.0805H38.0814H38.0822H38.0831H38.084H38.0848H38.0857H38.0866H38.0874H38.0883H38.0892H38.09H38.0909H38.0918H38.0926H38.0935H38.0944H38.0952H38.0961H38.097H38.0979H38.0987H38.0996H38.1005H38.1014H38.1022H38.1031H38.104H38.1049H38.1058H38.1066H38.1075H38.1084H38.1093H38.1101H38.111H38.1119H38.1128H38.1137H38.1146H38.1154H38.1163H38.1172H38.1181H38.119H38.1199H38.1209Z" fill="#007AFF" stroke="white" stroke-width="0.2"/>
<path d="M12.8207 21.8311L12.8207 21.8311C12.8144 18.8716 15.22 16.4621 18.1766 16.4652C21.1217 16.4684 23.5095 18.8505 23.5252 21.8031C23.5409 24.7357 21.1481 27.1487 18.2059 27.1665C15.247 27.1842 12.8259 24.7861 12.8207 21.8311ZM21.9005 21.8274C21.9082 19.7788 20.2347 18.0977 18.1813 18.0912L14.5348 21.8089L14.4348 21.8082C14.4348 21.8082 14.4348 21.8083 14.4348 21.8083C14.4205 23.8288 16.1243 25.5391 18.1621 25.5544C20.1922 25.5697 21.8928 23.872 21.9005 21.8274Z" fill="#007AFF" stroke="white" stroke-width="0.2"/>
<path d="M10.0379 11.0184C11.4809 11.0513 12.6472 12.2536 12.6144 13.6646C12.5805 15.1244 11.3697 16.2893 9.93648 16.2483L9.85985 16.2461C8.44584 16.166 7.32823 14.989 7.35943 13.602C7.39231 12.1437 8.59437 10.9856 10.0379 11.0184ZM10.0379 11.0184L10.0402 10.9184M10.0379 11.0184L10.0402 10.9184M10.0402 10.9184C11.5366 10.9525 12.7485 12.1989 12.7144 13.6669C12.68 15.1467 11.4794 16.3364 10.0336 16.3493L10.0402 10.9184ZM9.99041 12.6348C9.43739 12.6325 8.97052 13.1116 8.98954 13.6629L8.98954 13.6629C9.00848 14.2058 9.46347 14.6414 10.0047 14.6319L10.1029 14.6302V14.6241C10.5965 14.5647 10.9909 14.1304 10.9875 13.6268V13.6268C10.984 13.0936 10.5237 12.636 9.99041 12.6348ZM9.99041 12.6348C9.99045 12.6348 9.9905 12.6348 9.99054 12.6348L9.99011 12.7348L9.99033 12.6348C9.99036 12.6348 9.99038 12.6348 9.99041 12.6348Z" fill="#007AFF" stroke="white" stroke-width="0.2"/>
<path d="M25.3623 30.0013C25.3612 29.4616 25.8082 29.0093 26.3475 29.001L26.4491 28.9994V29.0062C26.9388 29.0525 27.3459 29.4767 27.3592 29.9782L25.3623 30.0013ZM25.3623 30.0013C25.3623 30.5594 25.8376 31.0184 26.3934 30.997M25.3623 30.0013L26.3934 30.997M26.3934 30.997C26.3934 30.997 26.3933 30.997 26.3933 30.997L26.3896 30.8971L26.3934 30.997ZM26.3934 30.997C26.932 30.9768 27.3735 30.5124 27.3592 29.9783L26.3934 30.997ZM23.7408 30.0172L23.7408 30.0171C23.7254 28.5761 24.9178 27.3719 26.3586 27.3719C27.7858 27.3719 28.9631 28.5447 28.9754 29.9818C28.9878 31.4274 27.7993 32.6283 26.3576 32.6273C24.9305 32.6262 23.7552 31.4555 23.7408 30.0172Z" fill="#007AFF" stroke="white" stroke-width="0.2"/>
<path d="M10.9848 29.9878L10.9848 29.9879C10.9848 29.9879 10.9848 29.9878 10.9848 29.9878ZM10.9848 29.9878L10.9848 29.9867M10.9848 29.9878L10.9848 29.9867M10.9848 29.9867C10.9765 29.4465 10.526 29.0018 9.98609 29.003M10.9848 29.9867L9.98609 29.003M9.98609 29.003C9.43007 29.0042 8.9697 29.4801 8.99109 30.0347M9.98609 29.003L9.98631 29.103L8.99109 30.0347M8.99109 30.0347C9.0113 30.5736 9.47428 31.0112 10.0113 30.9969L8.99109 30.0347ZM12.6159 30.0149V30.0149C12.6005 31.4563 11.3704 32.6599 9.95459 32.6261L9.95457 32.6261C8.51777 32.5922 7.34454 31.3947 7.35992 29.984L7.35992 29.984C7.37532 28.5427 8.60539 27.339 10.0212 27.3728L10.0213 27.3728C11.4581 27.4067 12.6313 28.6042 12.6159 30.0149ZM10.9848 29.9883H10.9848L10.0113 30.9969C10.5502 30.9827 10.9927 30.5263 10.9848 29.9886V29.9883Z" fill="#007AFF" stroke="white" stroke-width="0.2"/>
<path d="M32.3278 18.4245C32.4952 18.9125 32.784 19.1521 33.2221 19.1543L33.2231 19.1532C33.787 19.1564 34.2186 18.6461 34.1003 18.0698L32.3278 18.4245ZM32.3278 18.4245C32.2385 18.1645 32.1555 17.9015 32.0725 17.6386C31.8851 17.0452 31.6978 16.4519 31.4379 15.8923C29.5396 11.808 26.4167 9.11276 22.098 7.81309C22.0281 7.79212 21.9575 7.77282 21.887 7.75353C21.7318 7.71105 21.5767 7.66862 21.4287 7.60855M32.3278 18.4245L21.4287 7.60855M33.7369 16.7563L33.6423 16.7887C33.7882 17.2146 33.9117 17.6504 34.0024 18.0899C34.1079 18.6039 33.7241 19.056 33.2237 19.0532L33.1819 19.053L33.1815 19.0533C33.001 19.0455 32.8555 18.9915 32.7368 18.8942C32.6077 18.7884 32.5022 18.6248 32.4224 18.3921L32.4224 18.3921C32.3349 18.1372 32.2528 17.8772 32.1702 17.6157C31.9819 17.0194 31.7913 16.4158 31.5286 15.8502L31.5286 15.8502C29.6182 11.7398 26.4727 9.02517 22.1268 7.71733L22.1267 7.7173C22.0516 7.69478 21.9783 7.67474 21.9065 7.6551C21.7544 7.61351 21.6088 7.5737 21.4663 7.51589L21.4662 7.51584C21.0424 7.34448 20.8468 6.93039 20.9709 6.5337L20.9709 6.5337C21.102 6.1149 21.5122 5.86477 21.9614 6.01189L21.9925 5.91686M33.7369 16.7563L33.6423 16.7888C32.1543 12.4603 29.371 9.24476 25.2724 7.21451L25.2724 7.2145C24.4444 6.80408 23.5537 6.52081 22.6577 6.23589C22.4256 6.16207 22.1931 6.08813 21.9612 6.01185L21.9925 5.91686M33.7369 16.7563C32.2404 12.4035 29.4394 9.16709 25.3168 7.12491C24.4813 6.71076 23.5812 6.42454 22.6843 6.13938C22.4531 6.06586 22.2221 5.99241 21.9925 5.91686M33.7369 16.7563L20.8755 6.50384M21.9925 5.91686C21.4852 5.75067 21.0215 6.03724 20.8755 6.50384M20.8755 6.50384C20.7348 6.95339 20.9597 7.41893 21.4287 7.60855M20.8755 6.50384L21.4287 7.60855" fill="#007AFF" stroke="white" stroke-width="0.2"/>
</svg>
